<svg width="729" height="854" viewBox="0 0 729 854" fill="none" xmlns="http://www.w3.org/2000/svg">
<path opacity="0.2" d="M241.9 339.7L74.9004 243.3V330.3L241.9 426.7V339.7Z" fill="url(#paint0_linear_291_5562)"/>
<path d="M108.8 292.1C108.8 299.3 104.6 302.6 99.2998 299.6C94.0998 296.6 89.7998 288.3 89.7998 281.1C89.7998 273.9 93.9998 270.6 99.2998 273.6C104.6 276.6 108.8 284.9 108.8 292.1Z" fill="#F2C94C"/>
<path opacity="0.15" d="M117.6 286.3L178.5 321.4V335L117.6 300V286.3Z" fill="white"/>
<path opacity="0.15" d="M117.7 315.5L224.7 377.2V390.8L117.7 329.1V315.5Z" fill="white"/>
<path opacity="0.07" d="M373.1 58.8L560.3 166.9V570.1L373.1 462.1V58.8Z" fill="url(#paint1_linear_291_5562)"/>
<path opacity="0.3" d="M329.8 95.2L517 203.3V606.5L329.8 498.5V95.2Z" fill="url(#paint2_linear_291_5562)"/>
<path opacity="0.15" d="M347.9 319.9L498.3 406.7V420.3L347.9 333.5V319.9Z" fill="white"/>
<path opacity="0.15" d="M358.4 353L487.7 427.7V441.3L358.4 366.6V353Z" fill="white"/>
<path d="M280.9 406V361L391.4 424.8V469.8L280.9 406Z" fill="#F2994A"/>
<path opacity="0.2" d="M666.4 396.4C657.8 382.7 645.9 380.9 645.4 380.8C644.2 380.6 643.5 381.7 643.5 383.3V419.5C643.5 431.8 639.3 439.7 631 443.1C630.2 443.4 629.7 444.3 629.7 445.5C629.7 462.9 630 537.6 630.1 560.9C630.1 564.8 632.8 569.4 636.1 571.3C653.9 581.6 705 611.1 705 611.1C718.6 619 727.3 614.1 728.8 597.9L728.9 526.2C728.9 515.3 727 504.1 721 494.8C717.6 489.5 713.6 485.4 709.4 483L674.5 462.9V429.3C674.6 416.1 671.8 405.1 666.4 396.4Z" fill="url(#paint3_linear_291_5562)"/>
<path d="M583 414.6L622 437.1V564.7L583 542.2V414.6Z" fill="#F2C94C"/>
<path opacity="0.3" d="M297.6 171.8L0 0L0.1 155.1L271.4 311.7L297.7 350.6L297.6 171.8Z" fill="url(#paint4_linear_291_5562)"/>
<path opacity="0.15" d="M221.1 165.3L155.9 127.7V141.3L221.1 178.9V165.3Z" fill="white"/>
<path opacity="0.15" d="M221.1 192.6L59.5996 99.4V113L221.1 206.2V192.6Z" fill="#10EA9B"/>
<path opacity="0.15" d="M221.1 219.9L26.2998 107.4V121L221.1 233.5V219.9Z" fill="#00C2FF"/>
<path d="M237.1 188.8C237.1 201.6 244.7 216.3 254 221.7C263.3 227.1 270.9 221.1 270.9 208.3C270.9 195.5 263.3 180.8 254 175.4C244.7 170 237.1 176 237.1 188.8Z" fill="#F2C94C"/>
<path opacity="0.3" d="M425.9 526.3L723.5 698.1L723.6 853.2L452.2 696.6L426 705.2L425.9 526.3Z" fill="url(#paint5_linear_291_5562)"/>
<path opacity="0.15" d="M502.4 608.3L567.6 645.9V659.5L502.4 621.9V608.3Z" fill="#0DEAF8"/>
<path opacity="0.15" d="M502.4 635.5L620.1 703.4V717L502.4 649.1V635.5Z" fill="#00FF85"/>
<path opacity="0.15" d="M502.4 662.8L654.7 750.7V764.3L502.4 676.4V662.8Z" fill="white"/>
<path d="M486.4 613.2C486.4 626 478.8 632 469.5 626.6C460.2 621.2 452.6 606.5 452.6 593.7C452.6 580.9 460.2 574.9 469.5 580.3C478.8 585.7 486.3 600.4 486.4 613.2Z" fill="#F2C94C"/>
<path opacity="0.2" d="M322.9 499.7C328.9 503.1 333.7 511.5 333.7 518.4V548.9L353.9 560.5C359.9 563.9 364.7 572.3 364.7 579.2C364.7 586.1 359.9 588.9 353.9 585.5L333.7 573.9V604.4C333.7 611.3 328.9 614.1 322.9 610.7C316.9 607.3 312.1 598.9 312.1 592V561.5L291.9 549.9C285.9 546.5 281.1 538.1 281.1 531.2C281.1 524.3 285.9 521.5 291.9 524.9L312.1 536.5V506C312 499.1 316.9 496.2 322.9 499.7Z" fill="url(#paint6_linear_291_5562)"/>
<path opacity="0.05" d="M423 305C337.2 193.4 399.3 153 423 218.4C446.8 180.8 508.8 293.5 423 305Z" fill="url(#paint7_linear_291_5562)"/>
<path opacity="0.3" d="M403 325C317.2 213.4 379.3 173 403 238.4C426.8 200.8 488.8 313.5 403 325Z" fill="white"/>
<defs>
<linearGradient id="paint0_linear_291_5562" x1="177.192" y1="302.405" x2="139.526" y2="367.66" gradientUnits="userSpaceOnUse">
<stop stop-color="white"/>
<stop offset="1" stop-color="white" stop-opacity="0"/>
</linearGradient>
<linearGradient id="paint1_linear_291_5562" x1="575.426" y1="126.134" x2="386.627" y2="453.23" gradientUnits="userSpaceOnUse">
<stop stop-color="white"/>
<stop offset="1" stop-color="white" stop-opacity="0"/>
</linearGradient>
<linearGradient id="paint2_linear_291_5562" x1="532.155" y1="162.535" x2="343.357" y2="489.63" gradientUnits="userSpaceOnUse">
<stop stop-color="white"/>
<stop offset="1" stop-color="white" stop-opacity="0"/>
</linearGradient>
<linearGradient id="paint3_linear_291_5562" x1="642.37" y1="483.464" x2="767.676" y2="531.42" gradientUnits="userSpaceOnUse">
<stop stop-color="white"/>
<stop offset="1" stop-color="white" stop-opacity="0"/>
</linearGradient>
<linearGradient id="paint4_linear_291_5562" x1="232.677" y1="109.642" x2="79.0272" y2="229.946" gradientUnits="userSpaceOnUse">
<stop stop-color="white"/>
<stop offset="1" stop-color="white" stop-opacity="0"/>
</linearGradient>
<linearGradient id="paint5_linear_291_5562" x1="553.697" y1="531.362" x2="592.169" y2="843.393" gradientUnits="userSpaceOnUse">
<stop stop-color="white"/>
<stop offset="1" stop-color="white" stop-opacity="0"/>
</linearGradient>
<linearGradient id="paint6_linear_291_5562" x1="343.749" y1="538.677" x2="291.391" y2="579.997" gradientUnits="userSpaceOnUse">
<stop stop-color="white"/>
<stop offset="1" stop-color="white" stop-opacity="0"/>
</linearGradient>
<linearGradient id="paint7_linear_291_5562" x1="441.338" y1="222.906" x2="377.237" y2="277.715" gradientUnits="userSpaceOnUse">
<stop stop-color="white"/>
<stop offset="1" stop-color="white" stop-opacity="0"/>
</linearGradient>
</defs>
</svg>
