<svg width="821" height="700" viewBox="0 0 821 700" fill="none" xmlns="http://www.w3.org/2000/svg">
<path opacity="0.07" d="M755 325.3C755 329.8 754.9 334.3 754.6 338.5C797.6 371.2 830.7 441.3 830.7 503C830.7 570.2 791.4 601.9 742.9 573.9C742.8 573.8 742.7 573.8 742.6 573.7L437.9 398C437.8 397.9 437.7 397.9 437.5 397.8C383 366.3 338.8 279.6 338.8 204.1C338.8 133.4 377.6 97.5001 427.3 119.2C433.4 70.7001 465.9 49.8001 505.1 72.5001C523.9 83.4001 541.2 102.5 554.7 125.5C574.3 96.4001 607.7 89.0001 645.5 110.8C706 145.6 755 241.7 755 325.3Z" fill="url(#paint0_linear_291_5526)"/>
<path opacity="0.4" d="M705 373.3C705 377.8 704.9 382.3 704.6 386.5C747.6 419.2 780.7 489.3 780.7 551C780.7 618.2 741.4 649.9 692.9 621.9C692.8 621.8 692.7 621.8 692.6 621.7L387.9 446C387.8 445.9 387.7 445.9 387.5 445.8C333 414.3 288.8 327.6 288.8 252.1C288.8 181.4 327.6 145.5 377.3 167.2C383.4 118.7 415.9 97.8001 455.1 120.5C473.9 131.4 491.2 150.5 504.7 173.5C524.3 144.4 557.7 137 595.5 158.8C656 193.6 705 289.7 705 373.3Z" fill="url(#paint1_linear_291_5526)"/>
<path opacity="0.2" d="M222.6 458.9L176.2 432.1V416.4L222.6 443.2C226.4 445.4 231.9 449.8 236.6 456.6C241.7 463.9 245.3 473.1 245.3 483.1C245.3 494.1 242.5 500.4 237.1 502.2C232.1 503.9 226.2 501 222.5 498.9L203.4 487.9L203.3 487.8C201.7 486.8 199.1 485.9 197 486.5C195.3 487 193.4 488.7 193.4 494.8C193.4 500.9 195.3 504.7 196.9 506.9C198.9 509.7 201.5 511.7 203.1 512.5L203.3 512.6L261.6 546.3V562L203.6 528.5C199.6 526.4 193.9 522 188.9 515C183.5 507.4 179.7 497.7 179.8 486.9C179.8 476.2 183.5 470.7 188.9 469.2C193.9 467.8 199.6 469.8 203.6 472.3L222.5 483.2C225.2 484.8 227.3 485.5 228.6 485C229.6 484.7 231.6 483.2 231.6 475.2C231.6 470.1 229.9 466.7 228.4 464.4C226.6 461.8 224.1 459.8 222.6 458.9Z" fill="white"/>
<path d="M186.199 428.2C186.199 441.1 178.599 447.2 169.299 441.9C159.999 436.5 152.399 421.7 152.399 408.7C152.399 395.8 159.999 389.7 169.299 395C178.599 400.4 186.199 415.3 186.199 428.2Z" fill="#F2994A"/>
<path d="M285.199 567.2C285.199 580.1 277.599 586.2 268.299 580.9C258.999 575.5 251.399 560.7 251.399 547.7C251.399 534.8 258.999 528.7 268.299 534C277.599 539.4 285.199 554.3 285.199 567.2Z" fill="#F2994A"/>
<path opacity="0.07" d="M365.1 235L665 408.1V566.8L365 393.7L365.1 235Z" fill="url(#paint2_linear_291_5526)"/>
<path opacity="0.3" d="M325 255L624.9 428.1V586.8L325 413.7V255Z" fill="url(#paint3_linear_291_5526)"/>
<path d="M351.899 349.5C351.899 362.3 359.499 377 368.799 382.4C378.099 387.8 385.699 381.8 385.699 369C385.699 356.2 378.099 341.5 368.799 336.1C359.499 330.7 351.899 336.7 351.899 349.5Z" fill="#F2994A"/>
<path opacity="0.15" d="M394.2 374.2C394.2 380.1 397.7 387 402.1 389.5C406.4 392 409.9 389.2 409.9 383.3C409.9 377.4 406.4 370.5 402 368C397.7 365.5 394.2 368.3 394.2 374.2Z" fill="white"/>
<path opacity="0.25" d="M418.3 388.1C418.3 394 421.8 400.9 426.2 403.4C430.5 405.9 434 403.1 434 397.2C434 391.3 430.5 384.4 426.1 381.9C421.8 379.4 418.3 382.2 418.3 388.1Z" fill="#00C2FF"/>
<path opacity="0.15" d="M549.199 415.1V505.4L537.399 498.6V408.3L549.199 415.1Z" fill="white"/>
<path d="M575 430.1V520.4L563.2 513.6V423.3L575 430.1Z" fill="#FFC700"/>
<path opacity="0.15" d="M600.9 445.1V535.4L589.1 528.6V438.3L600.9 445.1Z" fill="white"/>
<path opacity="0.07" d="M365 451.9L664.9 625V783.7L365 610.6V451.9Z" fill="url(#paint4_linear_291_5526)"/>
<path opacity="0.3" d="M325 472.9L624.9 646V804.7L325 631.6V472.9Z" fill="url(#paint5_linear_291_5526)"/>
<path d="M351.899 567.4C351.899 580.2 359.499 594.9 368.799 600.3C378.099 605.7 385.699 599.7 385.699 586.9C385.699 574.1 378.099 559.4 368.799 554C359.499 548.6 351.899 554.6 351.899 567.4Z" fill="#F2994A"/>
<path opacity="0.15" d="M394.2 592.2C394.2 598.1 397.7 605 402.1 607.5C406.4 610 409.9 607.2 409.9 601.3C409.9 595.4 406.4 588.5 402 586C397.7 583.5 394.2 586.2 394.2 592.2Z" fill="white"/>
<path opacity="0.15" d="M418.2 606.1C418.2 612 421.7 618.9 426.1 621.4C430.4 623.9 433.9 621.1 433.9 615.2C433.9 609.3 430.4 602.4 426 599.9C421.7 597.3 418.2 600.1 418.2 606.1Z" fill="white"/>
<path opacity="0.15" d="M549.199 636.1V726.4L537.399 719.6V629.3L549.199 636.1Z" fill="#FFD600"/>
<path opacity="0.5" d="M575 651.1V741.4L563.2 734.6V644.3L575 651.1Z" fill="#FFD600"/>
<path d="M600.9 666.1V756.4L589.1 749.6V659.3L600.9 666.1Z" fill="#FE8900"/>
<path opacity="0.3" d="M58.7002 19.9001L245.6 127.8V474.1L58.7002 366.1V19.9001Z" fill="url(#paint6_linear_291_5526)"/>
<path d="M174.1 145.3C174.1 162.6 164.1 170.8 151.8 163.6C139.5 156.4 129.5 136.6 129.5 119.3C129.5 102 139.5 93.8 151.8 101C164.1 108.2 174.1 128 174.1 145.3Z" fill="#F2C94C"/>
<path d="M151.8 177.5C131.9 165.9 115.5 176.8 112.6 201.8C112.1 206.1 115.4 211.9 119.4 214.2L184.3 252.1C188.3 254.4 191.6 252.6 191.1 247.6C188.1 219.1 171.6 189.1 151.8 177.5Z" fill="#F2C94C"/>
<path opacity="0.15" d="M96.2002 244.5L207.6 308.8V322.4L96.2002 258.1V244.5Z" fill="white"/>
<path opacity="0.15" d="M107.5 278L195.8 328.9V342.5L107.5 291.6V278Z" fill="white"/>
<path d="M130 335.2L0 260.1V298.8L130 373.9V335.2Z" fill="#F2C94C"/>
<path opacity="0.2" d="M285.9 -24L313.7 30.6C317.5 38.1 316.9 45.6 312.3 47.4C307.7 49.2 300.9 44.5 297.1 37L296.8 36.3V96.9C296.8 103.8 292 106.6 286 103.2C280 99.7 275.2 91.4 275.2 84.5V23.9L274.9 24.2C271.1 27.3 264.2 24.1 259.7 17C255.1 9.9 254.5 1.7 258.3 -1.4L285.9 -24Z" fill="url(#paint7_linear_291_5526)"/>
<path opacity="0.2" d="M285.9 782.2L258.1 727.6C254.3 720.1 254.9 712.6 259.5 710.8C264.1 709 270.9 713.7 274.7 721.2L275 721.9V661.3C275 654.4 279.8 651.6 285.8 655C291.8 658.5 296.6 666.8 296.6 673.7V734.3L296.9 734C300.7 730.9 307.6 734.1 312.1 741.2C316.7 748.3 317.3 756.5 313.5 759.6L285.9 782.2Z" fill="url(#paint8_linear_291_5526)"/>
<defs>
<linearGradient id="paint0_linear_291_5526" x1="812.811" y1="134.335" x2="503.383" y2="427.834" gradientUnits="userSpaceOnUse">
<stop stop-color="#FFA800"/>
<stop offset="1" stop-color="white" stop-opacity="0"/>
</linearGradient>
<linearGradient id="paint1_linear_291_5526" x1="762.8" y1="182.335" x2="453.373" y2="475.834" gradientUnits="userSpaceOnUse">
<stop stop-color="white"/>
<stop offset="1" stop-color="white" stop-opacity="0"/>
</linearGradient>
<linearGradient id="paint2_linear_291_5526" x1="508.869" y1="247.69" x2="520.043" y2="528.409" gradientUnits="userSpaceOnUse">
<stop stop-color="white"/>
<stop offset="1" stop-color="white" stop-opacity="0"/>
</linearGradient>
<linearGradient id="paint3_linear_291_5526" x1="468.867" y1="267.69" x2="480.041" y2="548.409" gradientUnits="userSpaceOnUse">
<stop stop-color="white"/>
<stop offset="1" stop-color="white" stop-opacity="0"/>
</linearGradient>
<linearGradient id="paint4_linear_291_5526" x1="508.848" y1="464.624" x2="520.022" y2="745.342" gradientUnits="userSpaceOnUse">
<stop stop-color="white"/>
<stop offset="1" stop-color="white" stop-opacity="0"/>
</linearGradient>
<linearGradient id="paint5_linear_291_5526" x1="468.846" y1="485.624" x2="480.02" y2="766.342" gradientUnits="userSpaceOnUse">
<stop stop-color="white"/>
<stop offset="1" stop-color="white" stop-opacity="0"/>
</linearGradient>
<linearGradient id="paint6_linear_291_5526" x1="265.63" y1="50.3355" x2="99.7201" y2="337.775" gradientUnits="userSpaceOnUse">
<stop stop-color="white"/>
<stop offset="1" stop-color="white" stop-opacity="0"/>
</linearGradient>
<linearGradient id="paint7_linear_291_5526" x1="305.683" y1="31.0759" x2="254.962" y2="59.3501" gradientUnits="userSpaceOnUse">
<stop stop-color="white"/>
<stop offset="1" stop-color="white" stop-opacity="0"/>
</linearGradient>
<linearGradient id="paint8_linear_291_5526" x1="266.064" y1="727.161" x2="316.785" y2="698.887" gradientUnits="userSpaceOnUse">
<stop stop-color="white"/>
<stop offset="1" stop-color="white" stop-opacity="0"/>
</linearGradient>
</defs>
</svg>
