<svg width="1024" height="768" viewBox="0 0 1024 768" fill="none" xmlns="http://www.w3.org/2000/svg">
<path d="M499.073 398L476.027 585.156C475.967 585.635 476.007 586.121 476.146 586.583C476.284 587.045 476.518 587.472 476.83 587.835C477.143 588.198 477.528 588.49 477.96 588.691C478.392 588.892 478.861 588.997 479.336 589C480.138 589.008 480.915 588.72 481.524 588.19C482.132 587.66 482.531 586.923 482.645 586.117L509 402.685L499.073 398Z" fill="#B0D7C0"/>
<path d="M570.627 425L592.974 612.156C593.032 612.635 592.993 613.121 592.859 613.583C592.724 614.045 592.498 614.472 592.195 614.835C591.891 615.198 591.518 615.49 591.099 615.691C590.68 615.892 590.226 615.997 589.765 616C588.988 616.008 588.234 615.72 587.644 615.19C587.054 614.66 586.667 613.923 586.556 613.117L561 429.685L570.627 425Z" fill="#B0D7C0"/>
<path d="M459.387 418L429.042 604.03C428.968 604.508 428.992 604.997 429.114 605.464C429.235 605.932 429.451 606.367 429.746 606.742C430.042 607.117 430.41 607.422 430.828 607.638C431.246 607.854 431.703 607.976 432.169 607.996C432.957 608.038 433.733 607.78 434.351 607.271C434.97 606.763 435.388 606.037 435.528 605.232L469 423.047L459.387 418Z" fill="#B0D7C0"/>
<path d="M546 399L562.556 586.921C562.599 587.398 562.739 587.86 562.965 588.276C563.191 588.693 563.498 589.055 563.867 589.339C564.236 589.622 564.658 589.822 565.106 589.923C565.553 590.024 566.016 590.026 566.465 589.927C567.215 589.759 567.884 589.314 568.348 588.674C568.812 588.035 569.041 587.242 568.994 586.44L556.462 401.284L546 399Z" fill="#B0D7C0"/>
<path d="M594.885 232.023C581.924 229.866 539 381.326 539 381.326H580.26C580.26 381.326 560.046 405.651 559.333 407.928C558.619 410.205 551.247 441 551.247 441C600.592 425.183 589.653 381.207 589.653 381.207C579.071 348.254 593.815 306.075 600.117 271.206C606.419 236.337 594.885 232.023 594.885 232.023Z" fill="#FFE779"/>
<path d="M444 433.611C444 433.611 445.05 450.077 486.695 452.481C528.34 454.885 582.001 450.678 589 402C589.117 402 452.399 419.909 444 433.611Z" fill="#FFE779"/>
<path d="M579.48 378.029C568.086 335.561 612.135 240.668 594.985 231.791C577.365 222.793 509.706 226.512 491.499 242.588C474.467 257.703 466.714 369.751 465.774 383.907C465.677 384.38 465.638 384.864 465.657 385.347C465.657 393.745 464.482 407.9 458.492 412.339C446.863 420.977 427.716 434.053 464.365 443.65C464.365 443.65 480.222 447.369 525.446 445.45C586.645 442.811 580.537 404.302 580.419 381.268C580.381 380.124 580.058 379.009 579.48 378.029Z" fill="white"/>
<path d="M416.071 594.576C416.071 594.576 421.148 619.729 422.302 621.765C423.456 623.801 432.112 628.233 443.883 624.639C455.654 621.046 456 616.495 456 616.495C456 616.495 453.692 587.629 453.692 584.395C453.692 581.161 414.109 575.411 416.071 594.576Z" fill="#B28D93"/>
<path d="M455 602.137C454.408 594.444 453.697 585.935 453.697 584.303C453.697 581.156 413.058 575.562 415.072 594.211C415.072 594.211 415.902 597.941 416.85 602.603C429.362 605.95 442.576 605.789 455 602.137Z" fill="#896068"/>
<path d="M420.848 617.147C420.848 617.147 419.443 619.419 419.443 631.256C419.443 643.094 401.886 669.878 403.056 677.172C404.227 684.466 453.622 686.259 458.07 680.879C462.518 675.498 457.836 635.8 458.187 631.615C458.538 627.43 460.06 619.538 456.08 614.516C456.08 614.516 451.983 618.701 448.706 619.419C445.429 620.136 442.385 613.321 435.947 612.125C429.51 610.929 425.296 618.701 424.593 619.419C423.891 620.136 421.082 619.179 420.848 617.147Z" fill="#22272E"/>
<path d="M423 645C423 645 433.045 637.626 449 646" stroke="white" stroke-width="1.8" stroke-linecap="round" stroke-linejoin="round"/>
<path d="M419 656.932C419 656.932 432.937 646.836 449 659" stroke="white" stroke-width="1.8" stroke-linecap="round" stroke-linejoin="round"/>
<path d="M543 607.746C543 607.746 551 630.681 555.352 634.785C559.705 638.889 571.351 639.251 579.351 634.785C587.351 630.318 586.998 623.559 586.998 623.559C586.998 623.559 580.057 586.018 578.528 585.052C576.998 584.086 543 596.761 543 607.746Z" fill="#B28D93"/>
<path d="M543 608.177C543 608.177 545.023 613.955 547.521 620.347C561.323 622.806 573.34 618.011 585 611.127C582.858 599.941 579.884 585.681 578.932 585.066C577.266 583.96 543 596.99 543 608.177Z" fill="#896068"/>
<path d="M552.061 628.885C552.061 628.885 551.002 629.247 554.06 639.374C555.589 644.799 538.653 672.647 539.005 679.518C539.358 686.39 553.472 687.595 564.646 687.957C581.7 688.439 592.873 684.943 593.814 673.732C594.755 662.52 591.815 640.7 591.815 635.878C591.815 631.055 590.286 625.51 586.405 619C586.405 619 586.757 628.042 583.229 629.729C579.7 631.417 573.114 624.907 568.057 626.233C562.999 627.559 560.882 631.538 558.765 633.828C556.648 636.119 552.649 630.212 552.061 628.885Z" fill="#22272E"/>
<path d="M557 652C557 652 566.07 642.414 582 649.788" stroke="white" stroke-width="1.8" stroke-linecap="round" stroke-linejoin="round"/>
<path d="M552 663C552 663 566.358 650.197 582 661.996" stroke="white" stroke-width="1.8" stroke-linecap="round" stroke-linejoin="round"/>
<path d="M460.835 378.668C460.835 378.668 406.957 409.131 392.754 437.066C378.55 465.002 400.736 553.984 400.383 572.768C400.031 591.552 402.379 594.322 412.591 598.295C422.803 602.269 444.988 601.426 454.262 594.322C466.234 585.171 460.718 568.434 458.018 548.205C455.318 527.976 454.027 468.253 454.027 468.253C454.027 468.253 479.381 447.181 491.824 440.92C494.213 439.736 496.805 439.041 499.453 438.873C500.337 438.815 501.221 438.976 502.03 439.343C502.84 439.71 503.551 440.272 504.104 440.981C504.657 441.689 505.035 442.525 505.206 443.415C505.377 444.306 505.337 445.226 505.088 446.097C502.036 457.175 497.693 484.99 499.453 497.753C501.097 509.674 509.196 539.174 525.043 589.144C528.212 599.018 529.268 606.965 533.142 610.336C549.458 624.424 584.907 609.373 588.664 596.248C590.189 590.83 586.316 572.407 581.268 552.299C574.108 523.521 564.483 491.251 565.187 487.759C566.361 481.859 581.503 427.675 577.512 403.352C567.887 344.471 523.399 368.192 460.835 378.668Z" fill="#22272E"/>
<path d="M409.5 474C419.165 474 427 465.046 427 454C427 442.954 419.165 434 409.5 434C399.835 434 392 442.954 392 454C392 465.046 399.835 474 409.5 474Z" stroke="#63737A" stroke-width="1.8" stroke-linecap="round" stroke-linejoin="round"/>
<path d="M527.225 517.996C537.245 516.584 544.18 506.581 542.713 495.654C541.247 484.727 531.935 477.014 521.915 478.426C511.895 479.838 504.961 489.841 506.427 500.768C507.894 511.695 517.205 519.409 527.225 517.996Z" stroke="#63737A" stroke-width="1.8" stroke-linecap="round" stroke-linejoin="round"/>
<path d="M454 469C454 469 453.28 461.168 451 457" stroke="#63737A" stroke-width="1.8" stroke-linecap="round" stroke-linejoin="round"/>
<path d="M500.678 439C500.678 439 501.743 430.472 500 428" stroke="#63737A" stroke-width="1.8" stroke-linecap="round" stroke-linejoin="round"/>
<path d="M486 429C486 429 494.855 429 514 429" stroke="#63737A" stroke-width="1.8" stroke-linecap="round" stroke-linejoin="round"/>
<path d="M467.507 256.876C467.507 256.876 460.719 259.408 450.186 275.808C444.414 284.879 437.957 293.467 430.876 301.494C430.876 301.494 418.822 287.867 406.183 279.185C393.544 270.502 379.149 256.876 379.149 256.876C379.149 256.876 369.67 251.57 363.701 258.805C357.733 266.041 360.776 276.532 360.776 276.532C360.776 276.532 374.936 296.308 395.767 322.114C409.343 338.997 423.152 351.055 434.738 347.317C450.186 342.373 480.614 313.914 485.88 302.579C491.147 291.244 487.168 252.776 467.507 256.876Z" fill="#6DAFA7"/>
<path d="M431 301C433.623 304.605 435.652 308.664 437 313" stroke="#22272E" stroke-width="1.8" stroke-linecap="round" stroke-linejoin="round"/>
<path d="M379.806 257.323C379.806 257.323 370.312 249.559 363.548 250.265C354.766 251.206 354.885 249.206 349.307 250.383C346.696 250.971 341.949 252.853 336.965 258.969C334.476 261.892 332.215 264.999 330.201 268.262C330.201 268.262 324.979 257.205 321.775 258.969C318.571 260.734 326.166 277.672 328.777 279.436C331.388 281.2 339.101 278.142 341.831 279.436C344.56 280.73 351.918 278.377 351.918 278.377L362.005 275.907L364.616 278.73C365.03 279.171 365.564 279.484 366.154 279.63C366.744 279.776 367.364 279.749 367.938 279.554C371.974 277.927 375.21 274.805 376.957 270.849C381.111 262.263 379.806 257.323 379.806 257.323Z" fill="#B28D93"/>
<path d="M330.276 268.384C330.276 268.384 325.012 257.443 321.782 259.189C318.552 260.935 326.208 277.696 328.84 279.442C331.472 281.188 339.248 278.162 342 279.442" stroke="#89555F" stroke-width="1.8" stroke-linecap="round" stroke-linejoin="round"/>
<path d="M368 265.334C368 265.334 364.603 274.181 360.385 279.885C356.168 285.589 349.841 285.822 347.03 283.959C344.218 282.097 347.967 269.292 348.787 266.149C349.607 263.006 352.184 260.096 353.825 263.588C355.113 266.265 353.239 272.668 353.59 277.79" fill="#B28D93"/>
<path d="M348 283.274C348 283.274 344.199 285.588 341.992 284.857C339.786 284.127 338.437 282.544 338.069 279.256C337.701 275.969 338.927 266.107 338.805 263.55C338.682 260.993 342.728 258.923 344.445 264.767C346.161 270.612 345.303 275.726 346.406 276.943" fill="#B28D93"/>
<path d="M340 281.319C338.209 282.191 336.277 282.753 334.289 282.981C331.373 283.218 330.037 281.319 329.065 275.503C327.971 268.501 327.121 261.379 329.672 261.023C332.224 260.667 333.56 264.465 334.532 268.382C335.504 272.299 336.112 274.791 336.719 274.91" fill="#B28D93"/>
<path d="M350.659 250.174C350.659 250.174 344.005 250.664 341.553 250.664C339.101 250.664 332.68 248.949 331.279 251.031C329.878 253.114 333.848 256.911 340.969 257.891C348.091 258.871 354.979 252.991 350.659 250.174Z" fill="#B28D93"/>
<path d="M368 285.518C368 285.518 376.955 288.576 383.189 279.286C388.743 271.055 386.589 264 386.589 264" stroke="#22272E" stroke-width="1.8" stroke-linecap="round" stroke-linejoin="round"/>
<path d="M416.416 342C416.416 342 414.234 339.081 419.861 337.304C425.488 335.527 447.421 334.511 444.78 341.492" stroke="#22272E" stroke-width="1.8" stroke-linecap="round" stroke-linejoin="round"/>
<path d="M368 265.334C368 265.334 364.603 274.181 360.385 279.885C356.168 285.589 349.841 285.822 347.03 283.959C344.218 282.097 347.967 269.292 348.787 266.149C349.607 263.006 352.184 260.096 353.825 263.588C355.113 266.265 353.239 272.668 353.59 277.79" stroke="#89555F" stroke-width="1.8" stroke-linecap="round" stroke-linejoin="round"/>
<path d="M345.752 284.398C344.604 284.968 343.294 285.14 342.035 284.885C339.805 284.154 338.442 282.569 338.07 279.278C337.698 275.987 338.937 266.113 338.813 263.553C338.689 260.993 342.778 258.92 344.513 264.772C345.752 269.16 345.628 272.939 346 275.255" stroke="#89555F" stroke-width="1.8" stroke-linecap="round" stroke-linejoin="round"/>
<path d="M339 281.794C337.507 282.457 335.908 282.858 334.273 282.981C331.365 283.218 330.032 281.319 329.062 275.503C327.971 268.501 327.123 261.379 329.668 261.023C332.213 260.667 333.546 264.465 334.516 268.382C335.485 272.299 336.091 274.791 336.697 274.91" stroke="#89555F" stroke-width="1.8" stroke-linecap="round" stroke-linejoin="round"/>
<path d="M339 257C340.82 255.113 342.831 253.437 345 252" stroke="#89555F" stroke-width="1.8" stroke-linecap="round" stroke-linejoin="round"/>
<path d="M481.044 192.476C480.927 190.282 481.045 188.082 481.396 185.915C482.336 180.812 484.804 170.12 488.917 166.597C495.027 161.372 498.317 169.148 498.317 169.148C498.317 169.148 502.547 163.438 506.543 164.045C510.538 164.653 512.653 169.513 512.653 169.513C512.653 169.513 519.116 164.045 522.994 166.718C525.352 168.326 527.096 170.731 527.929 173.522C527.929 173.522 532.042 168.662 536.389 170.606C540.737 172.55 541.56 184.092 541.56 184.092C541.56 184.092 545.907 186.644 546.847 195.513C547.905 204.99 543.44 218.962 534.274 235C534.274 235 515.356 199.766 503.37 194.784C491.384 189.803 491.502 199.037 487.742 199.28C484.451 199.401 481.631 199.037 481.044 192.476Z" fill="#22272E"/>
<path d="M482.891 257.706C482.891 257.706 468.111 259.503 485.374 243.687C500.272 230.028 549.932 233.862 556.317 245.604C561.046 254.351 567.076 277.715 546.976 291.734C526.875 305.752 491.877 290.895 482.891 257.706Z" fill="#6DAFA7"/>
<path d="M511.126 253.209C511.126 253.209 524.952 252.608 536.533 252.127C548.114 251.646 565.013 251.887 574.348 264.874C585.102 279.664 568.912 330.65 566.549 343.637C564.185 356.624 573.285 372.257 572.812 382.959C572.576 389.092 565.013 405.205 531.451 408.212C493.518 411.699 460.075 403.762 456.412 381.516C453.93 366.605 463.62 356.143 460.311 331.853C458.539 319.106 456.293 277.861 460.548 266.196C464.802 254.532 471.892 250.684 511.126 253.209Z" fill="#FFE779"/>
<path d="M497.449 241.377C497.449 241.377 495.822 254.529 495.125 257.965C494.428 261.401 496.287 271.117 509.762 270.999C524.283 270.88 533.344 259.031 533.692 254.292C534.041 249.552 532.879 226.684 534.854 219.101C536.829 211.517 518.242 215.901 510.227 220.641C502.211 225.381 496.635 237.466 497.449 241.377Z" fill="#B28D93"/>
<path d="M521 240C513.647 241.852 504.597 248.767 496.792 247.408C496.566 249.507 496.226 251.73 496 253.706C506.407 255.558 516.249 248.396 521 240Z" fill="#896068"/>
<path d="M495.929 250.115C495.929 250.115 494.051 264.122 505.438 271.064C505.438 271.064 518.586 269.846 528.212 260.103C529.989 258.27 531.392 256.086 532.34 253.68C533.288 251.274 533.76 248.695 533.73 246.096V245C533.73 245 552.16 245.244 557.443 250.968C567.539 261.929 526.099 279.346 503.56 283C503.56 283 482.664 270.942 477.733 258.641C472.803 246.34 494.286 250.603 495.929 250.115Z" fill="#6DAFA7"/>
<path d="M500 275C496.348 286.695 494 298.771 493 311" stroke="#22272E" stroke-width="1.8" stroke-linecap="round" stroke-linejoin="round"/>
<path d="M495.988 312.38C496.113 310.845 495.241 306.12 493.621 306.002C492.001 305.884 490.132 310.372 490.008 311.907C489.952 312.657 490.207 313.398 490.719 313.971C491.231 314.545 491.96 314.906 492.749 314.978C493.145 315.026 493.547 314.995 493.929 314.888C494.312 314.78 494.667 314.599 494.971 314.354C495.276 314.11 495.524 313.808 495.699 313.468C495.874 313.129 495.972 312.758 495.988 312.38Z" fill="#6DAFA7"/>
<path d="M513.525 276C512.491 288.011 512.985 300.09 515 312" stroke="#22272E" stroke-width="1.8" stroke-linecap="round" stroke-linejoin="round"/>
<path d="M517.975 312.67C517.728 311.137 515.752 306.773 514.146 307.009C512.541 307.245 511.8 311.963 512.047 313.496C512.166 314.26 512.596 314.949 513.243 315.413C513.89 315.876 514.703 316.078 515.505 315.973C516.276 315.821 516.96 315.397 517.418 314.784C517.876 314.172 518.075 313.417 517.975 312.67Z" fill="#6DAFA7"/>
<path d="M470.992 366.338C474.771 360.106 477.207 353.123 478.139 345.854C478.248 344.726 478.791 343.689 479.648 342.97C480.505 342.252 481.605 341.91 482.708 342.02C491.378 342.979 510.71 344.775 525.238 343.458C525.792 343.407 526.351 343.469 526.882 343.641C527.413 343.813 527.905 344.09 528.33 344.458C528.755 344.826 529.105 345.276 529.358 345.783C529.612 346.29 529.764 346.843 529.807 347.411C530.275 352.562 532.502 361.306 541.171 369.811C541.884 370.413 542.345 371.27 542.46 372.207C543.591 378.084 544.102 384.068 543.983 390.056C543.515 398.321 489.152 403.951 470.406 386.941C469.957 386.512 469.6 385.993 469.358 385.415C469.116 384.838 468.994 384.215 469 383.587C469.117 380.353 469.586 373.645 470.406 368.134C470.493 367.504 470.691 366.895 470.992 366.338Z" fill="#6DAFA7"/>
<path d="M481.599 198.094C481.599 198.094 481.362 209.974 480.296 220.156C479.23 230.339 480.296 243.916 496.286 248.158C512.276 252.401 527.793 240.037 533.597 223.793C539.4 207.549 539.637 185.608 519.265 177.001C498.892 168.395 482.547 179.183 481.599 198.094Z" fill="#B28D93"/>
<path d="M540.602 208.458C539.075 215.954 538.018 220 538.018 220L533.087 214.764C533.087 214.764 524.633 213.574 523.458 198.224C523.372 196.933 522.959 195.686 522.26 194.602C521.561 193.519 520.599 192.635 519.466 192.037C512.538 188.348 508.898 193.822 495.395 192.87C490.816 192.513 483.771 191.799 484.006 184.659C484.593 166.097 512.891 167.525 526.276 175.973C539.662 184.421 542.128 201.08 540.602 208.458Z" fill="#22272E"/>
<path d="M528 216.309C528 216.309 530.893 209.342 535.678 210.051C540.796 210.759 541.241 227.055 528 228" fill="#B28D93"/>
<path d="M489.031 207C489.255 208.605 489.296 210.228 489.154 211.841C489.076 213.493 488.744 215.124 488.169 216.682C488.046 217.037 487.8 217.509 487.677 217.863C487.554 218.217 487.431 218.454 487.308 218.808C487.159 219.317 487.202 219.861 487.431 220.343C488.272 221.554 489.538 222.434 491 222.823C490.114 223.059 489.178 223.059 488.292 222.823C487.317 222.586 486.452 222.047 485.831 221.287C485.466 220.881 485.212 220.394 485.092 219.871C484.969 219.366 484.969 218.84 485.092 218.336C485.216 217.889 485.381 217.455 485.585 217.037C485.724 216.71 485.888 216.395 486.077 216.092C487.308 213.14 487.923 210.07 489.031 207Z" fill="#22272E"/>
<path d="M496 232.59C496 232.59 496.778 231.519 498.667 232.447C500.556 233.375 501.333 233.018 502.333 232.233C503.333 231.448 503.778 232.947 506 232.376" stroke="#22272E" stroke-width="1.8" stroke-linecap="round" stroke-linejoin="round"/>
<path d="M506.321 203.526C506.134 203.147 506.026 202.732 506.004 202.308C505.982 201.885 506.046 201.46 506.193 201.063C506.339 200.666 506.565 200.305 506.855 200.002C507.145 199.699 507.494 199.462 507.879 199.305C510.104 198.278 513.775 199.989 515.888 202.271C518.002 204.552 516.89 205.693 514.331 204.552C511.772 203.412 510.66 203.184 508.435 203.982C508.084 204.16 507.684 204.212 507.301 204.129C506.918 204.046 506.573 203.834 506.321 203.526Z" fill="#22272E"/>
<path d="M489.592 202.572C489.969 201.902 490.09 201.122 489.933 200.372C489.775 199.621 489.35 198.951 488.734 198.482C487.018 197.279 484.199 198.482 482.728 200.407C481.38 202.091 481.993 203.054 483.831 202.572C485.67 202.091 486.405 201.85 487.999 202.813C488.249 202.969 488.548 203.03 488.841 202.986C489.134 202.942 489.401 202.795 489.592 202.572Z" fill="#22272E"/>
<path d="M536 216.622C535.626 216.386 535.21 216.228 534.778 216.159C534.661 216.141 534.542 216.166 534.44 216.229C534.339 216.293 534.262 216.391 534.222 216.507C533.934 217.202 533.783 217.951 533.778 218.708C533.744 219.798 533.479 220.867 533 221.837C532.84 222.104 532.629 222.334 532.381 222.513C532.132 222.693 531.852 222.817 531.556 222.88C531.307 222.975 531.042 223.014 530.778 222.996C530.556 222.996 530.222 222.88 530 222.88C530.889 222.3 531.556 221.721 531.556 221.142C531.556 220.562 531.667 219.635 531.778 218.592C531.812 217.407 532.29 216.284 533.111 215.464C533.384 215.195 533.737 215.032 534.111 215C534.457 214.995 534.8 215.075 535.111 215.232C535.519 215.607 535.825 216.086 536 216.622Z" fill="#22272E"/>
<path d="M486.304 212.981C486.493 213.017 486.687 213.002 486.872 212.934C487.056 212.867 487.229 212.75 487.377 212.591C487.526 212.431 487.648 212.233 487.736 212.008C487.824 211.783 487.875 211.536 487.886 211.283L487.985 210.108C488.013 209.858 488.001 209.603 487.95 209.359C487.9 209.115 487.811 208.887 487.69 208.691C487.569 208.495 487.419 208.334 487.248 208.218C487.078 208.102 486.891 208.035 486.699 208.019C486.51 207.983 486.316 207.998 486.132 208.066C485.947 208.133 485.774 208.25 485.626 208.409C485.477 208.569 485.355 208.767 485.267 208.992C485.18 209.217 485.128 209.464 485.117 209.717L485.018 210.892C484.987 211.143 484.996 211.399 485.046 211.645C485.096 211.891 485.184 212.12 485.306 212.317C485.427 212.514 485.579 212.675 485.751 212.79C485.923 212.904 486.111 212.969 486.304 212.981Z" fill="#22272E"/>
<path d="M507.295 214.981C507.486 215.017 507.68 215.002 507.866 214.934C508.052 214.867 508.225 214.75 508.374 214.591C508.524 214.431 508.647 214.233 508.735 214.008C508.823 213.783 508.874 213.536 508.886 213.283L508.985 212.108C509.013 211.858 509.001 211.603 508.95 211.359C508.899 211.115 508.81 210.887 508.688 210.691C508.567 210.495 508.416 210.334 508.244 210.218C508.073 210.102 507.885 210.035 507.693 210.019C507.502 209.983 507.308 209.998 507.122 210.066C506.937 210.133 506.763 210.25 506.614 210.409C506.464 210.569 506.342 210.767 506.254 210.992C506.166 211.217 506.114 211.464 506.102 211.717L506.003 212.892C505.979 213.389 506.099 213.881 506.338 214.268C506.578 214.655 506.919 214.91 507.295 214.981Z" fill="#22272E"/>
<path d="M568.007 262.001C569.355 261.98 570.694 262.234 571.944 262.75C573.195 263.265 574.332 264.03 575.289 265.001C577.638 267.28 582.572 272.079 592.203 281.318C607.708 296.315 609.822 299.195 609.822 299.195C609.822 299.195 623.448 310.113 624.857 323.67C626.267 337.228 617.34 355.465 594.083 340.227C570.826 324.99 559.549 314.792 554.851 304.474C550.622 295.235 553.089 262.361 568.007 262.001Z" fill="#6DAFA7"/>
<path d="M602.336 312.185C606.691 303.066 612.651 294.83 619.923 287.883C632.199 276.031 646.717 261.425 649.432 258.552C652.147 255.679 658.757 249.095 667.727 256.158C676.698 263.221 671.505 275.552 671.505 275.552C671.505 275.552 655.806 301.171 642.822 322.959C629.838 344.747 616.618 351.93 599.857 343.67C583.096 335.41 602.336 312.185 602.336 312.185Z" fill="#6DAFA7"/>
<path d="M649.23 260.383C649.23 260.383 655.92 251.031 658.62 247.752C661.319 244.473 666.249 239.494 672.704 241.437C679.16 243.38 682.564 239.251 687.493 244.594C692.423 249.938 695.827 259.776 698.996 263.419C702.165 267.063 701.343 268.035 706.39 267.913C711.437 267.792 715.545 269.006 713.433 271.921C711.32 274.836 697.587 275.564 695.709 275.322C693.831 275.079 685.029 276.293 682.798 275.2C680.568 274.107 680.92 275.079 679.042 273.986C677.165 272.893 672.352 270.464 672.352 270.464C671.398 272.389 670.215 274.185 668.831 275.807C666.836 277.994 658.15 277.629 652.516 270.828C647.704 264.998 649.23 260.383 649.23 260.383Z" fill="#B28D93"/>
<path d="M699.234 264C702.353 267.355 701.544 268.25 706.511 268.138C711.478 268.026 715.521 269.145 713.442 271.829C711.363 274.513 697.848 275.184 696 274.96" stroke="#89555F" stroke-width="1.8" stroke-linecap="round" stroke-linejoin="round"/>
<path d="M679.516 271.234C679.741 265.179 681.652 260.38 683.451 261.065C685.25 261.751 686.262 274.662 681.989 277.633C677.717 280.603 666.249 264.607 664 263.579" fill="#B28D93"/>
<path d="M682 276.885C682 276.885 684.437 281.705 688.035 279.354C691.633 277.002 695.23 266.186 695.927 263.835C696.623 261.484 692.213 260.543 689.311 266.304C686.41 272.065 684.321 272.888 684.321 272.888" fill="#B28D93"/>
<path d="M689 277.629C689.508 278.545 690.28 279.255 691.197 279.651C692.115 280.048 693.128 280.108 694.08 279.823C697.58 278.848 702.096 271.292 704.241 268.855C706.386 266.418 703.677 263.249 699.951 266.174C696.225 269.099 693.516 271.902 691.71 272.511" fill="#B28D93"/>
<path d="M686.058 243C686.058 243 688.863 244.487 692.485 249.691C696.108 254.896 703.119 255.639 703.937 258.366C704.755 261.092 697.393 262.207 691.551 259.233C685.708 256.259 683.488 243.62 686.058 243Z" fill="#B28D93"/>
<path d="M642.169 266C641.774 268.789 642.074 271.636 643.04 274.27C644.006 276.903 645.606 279.233 647.687 281.037C650.078 283.416 653.077 285.027 656.325 285.678C659.573 286.328 662.932 285.99 666 284.704" stroke="#22272E" stroke-width="1.8" stroke-linecap="round" stroke-linejoin="round"/>
<path d="M600.381 344C600.381 344 597.704 339.769 606.549 337.653C615.394 335.537 630.407 334.417 628.894 340.889" stroke="#22272E" stroke-width="1.8" stroke-linecap="round" stroke-linejoin="round"/>
<path d="M679.516 271.234C679.741 265.179 681.652 260.38 683.451 261.065C685.25 261.751 686.262 274.662 681.989 277.633C677.717 280.603 666.249 264.607 664 263.579" stroke="#89555F" stroke-width="1.8" stroke-linecap="round" stroke-linejoin="round"/>
<path d="M687.761 280C691.482 277.683 695.204 266.342 695.924 263.903C696.644 261.465 692.083 260.489 689.081 266.464C688.085 268.725 686.703 270.789 685 272.561" stroke="#89555F" stroke-width="1.8" stroke-linecap="round" stroke-linejoin="round"/>
<path d="M690 278.811C690.554 279.351 691.228 279.725 691.956 279.895C692.684 280.066 693.44 280.027 694.15 279.784C697.628 278.811 702.115 271.276 704.246 268.845C706.377 266.414 703.685 263.254 699.983 266.171C697.067 268.359 694.823 270.668 693.141 271.762" stroke="#89555F" stroke-width="1.8" stroke-linecap="round" stroke-linejoin="round"/>
<path d="M697 261C697 261 694.081 255.542 693 254" stroke="#89555F" stroke-width="1.8" stroke-linecap="round" stroke-linejoin="round"/>
<path d="M610 300C610 300 603.412 307.727 602 317" stroke="#22272E" stroke-width="1.8" stroke-linecap="round" stroke-linejoin="round"/>
<path d="M250.649 334.995H209.59C208.774 334.949 207.993 334.643 207.354 334.12C206.716 333.597 206.253 332.883 206.03 332.078L200.096 306.922C199.992 306.572 199.972 306.201 200.038 305.841C200.104 305.482 200.255 305.144 200.477 304.857C200.698 304.571 200.985 304.343 201.311 304.195C201.638 304.046 201.995 303.981 202.351 304.005H243.41C244.226 304.051 245.007 304.357 245.646 304.88C246.284 305.403 246.747 306.117 246.97 306.922L252.903 332.078C253.008 332.428 253.028 332.799 252.962 333.159C252.896 333.518 252.745 333.856 252.523 334.143C252.302 334.429 252.015 334.657 251.689 334.805C251.362 334.954 251.005 335.019 250.649 334.995Z" fill="#6DAFA7"/>
<path d="M201 305L223.875 318.274C224.524 318.746 225.299 319 226.093 319C226.887 319 227.661 318.746 228.31 318.274L245 305" stroke="#22272E" stroke-width="1.8" stroke-linecap="round" stroke-linejoin="round"/>
<path d="M806.727 336.984L714.222 331.359C713.7 331.33 713.192 331.179 712.736 330.918C712.28 330.657 711.89 330.292 711.595 329.853C711.3 329.413 711.108 328.91 711.034 328.382C710.96 327.854 711.007 327.317 711.17 326.81L736.996 243.144C737.343 242.085 737.981 241.149 738.834 240.449C739.688 239.749 740.72 239.313 741.809 239.194L838.306 232.013C838.867 231.964 839.432 232.058 839.949 232.286C840.465 232.514 840.919 232.87 841.268 233.32C841.617 233.771 841.851 234.303 841.948 234.869C842.046 235.434 842.005 236.016 841.828 236.561L812.245 333.034C811.917 334.243 811.187 335.297 810.18 336.018C809.174 336.738 807.954 337.08 806.727 336.984Z" fill="#63737A"/>
<path d="M803.727 334.984L711.222 329.305C710.7 329.276 710.192 329.124 709.736 328.86C709.28 328.597 708.89 328.229 708.595 327.785C708.3 327.341 708.108 326.833 708.034 326.3C707.96 325.767 708.007 325.224 708.17 324.713L733.996 240.25C734.343 239.181 734.981 238.237 735.834 237.53C736.688 236.823 737.72 236.383 738.809 236.263L835.306 229.013C835.867 228.963 836.432 229.058 836.948 229.289C837.465 229.519 837.919 229.878 838.268 230.333C838.617 230.788 838.851 231.325 838.948 231.896C839.046 232.467 839.005 233.054 838.828 233.604L809.245 330.997C808.917 332.216 808.187 333.281 807.18 334.008C806.174 334.736 804.954 335.081 803.727 334.984Z" fill="#22272E"/>
<path d="M756.355 253.14L739.865 253.999C739.733 254.005 739.601 253.978 739.481 253.92C739.361 253.863 739.256 253.776 739.175 253.668C739.094 253.56 739.039 253.433 739.014 253.299C738.99 253.164 738.997 253.025 739.035 252.894L740.221 248.965C740.313 248.681 740.488 248.434 740.722 248.258C740.956 248.082 741.237 247.986 741.526 247.983L758.135 247.001C758.267 246.995 758.399 247.022 758.519 247.08C758.639 247.137 758.744 247.224 758.825 247.332C758.906 247.44 758.961 247.567 758.986 247.701C759.01 247.836 759.003 247.975 758.965 248.106L757.66 252.158C757.529 252.413 757.344 252.635 757.117 252.805C756.891 252.975 756.631 253.09 756.355 253.14Z" fill="#FFE779"/>
<path d="M722.319 317.983C721.951 317.965 721.592 317.857 721.269 317.668C720.946 317.478 720.667 317.213 720.453 316.891C720.239 316.569 720.096 316.199 720.034 315.809C719.973 315.419 719.994 315.019 720.097 314.639L727.428 289.792C727.576 289.279 727.87 288.83 728.269 288.509C728.668 288.187 729.151 288.009 729.65 288C730.024 287.999 730.393 288.094 730.726 288.278C731.059 288.461 731.346 288.728 731.563 289.055C731.781 289.383 731.922 289.762 731.976 290.16C732.029 290.558 731.994 290.964 731.871 291.345L724.54 316.192C724.458 316.742 724.18 317.236 723.766 317.57C723.351 317.904 722.833 318.052 722.319 317.983Z" fill="#FFE779"/>
<path d="M733.529 318.992C733.12 318.982 732.719 318.873 732.36 318.676C732 318.479 731.691 318.199 731.459 317.859C731.227 317.518 731.077 317.128 731.023 316.718C730.969 316.308 731.011 315.891 731.146 315.501L743.775 274.926C743.958 274.392 744.294 273.925 744.739 273.582C745.184 273.24 745.718 273.037 746.277 273C746.697 272.999 747.112 273.096 747.489 273.285C747.865 273.473 748.194 273.748 748.448 274.086C748.702 274.424 748.875 274.818 748.953 275.235C749.031 275.653 749.012 276.083 748.898 276.492L736.269 317.066C736.101 317.657 735.737 318.17 735.238 318.521C734.739 318.872 734.135 319.039 733.529 318.992Z" fill="#63737A"/>
<path d="M745.689 318.999C745.259 318.973 744.84 318.854 744.464 318.649C744.088 318.445 743.765 318.16 743.518 317.818C743.271 317.475 743.106 317.082 743.037 316.669C742.968 316.256 742.996 315.833 743.118 315.432L748.505 298.903C748.678 298.344 749.035 297.855 749.522 297.512C750.008 297.168 750.597 296.989 751.198 297.001C751.637 297.013 752.067 297.123 752.456 297.322C752.844 297.52 753.181 297.802 753.441 298.146C753.7 298.49 753.876 298.887 753.954 299.306C754.032 299.726 754.011 300.157 753.891 300.568L748.505 317.097C748.304 317.663 747.924 318.153 747.417 318.495C746.911 318.837 746.305 319.014 745.689 318.999Z" fill="#FFE779"/>
<path d="M758.668 319.995C758.244 319.971 757.831 319.847 757.459 319.633C757.087 319.419 756.767 319.121 756.521 318.76C756.275 318.4 756.111 317.986 756.04 317.55C755.969 317.114 755.993 316.667 756.111 316.242L770.64 268.058C770.818 267.488 771.158 266.986 771.614 266.619C772.07 266.252 772.622 266.036 773.197 266C773.635 265.994 774.068 266.097 774.461 266.299C774.853 266.501 775.194 266.798 775.455 267.165C775.716 267.531 775.89 267.957 775.962 268.407C776.034 268.857 776.003 269.318 775.87 269.753L761.341 317.937C761.198 318.552 760.852 319.095 760.363 319.471C759.874 319.848 759.274 320.033 758.668 319.995Z" fill="#6DAFA7"/>
<path d="M770.907 320C770.449 319.965 770.005 319.833 769.606 319.614C769.206 319.395 768.861 319.094 768.593 318.731C768.325 318.369 768.142 317.954 768.056 317.515C767.97 317.077 767.983 316.626 768.095 316.193L778.119 285.023C778.313 284.443 778.688 283.936 779.192 283.573C779.696 283.211 780.304 283.01 780.931 283C781.408 282.993 781.88 283.095 782.309 283.3C782.737 283.504 783.11 283.804 783.396 284.175C783.682 284.547 783.874 284.979 783.956 285.437C784.037 285.894 784.006 286.364 783.865 286.807L773.841 317.977C773.636 318.574 773.241 319.091 772.713 319.455C772.186 319.819 771.553 320.009 770.907 320Z" fill="#63737A"/>
<path d="M784.837 321C784.381 320.982 783.935 320.854 783.535 320.627C783.135 320.4 782.79 320.08 782.53 319.691C782.269 319.303 782.098 318.856 782.032 318.388C781.965 317.919 782.004 317.441 782.145 316.991L784.135 310.187C784.331 309.545 784.721 308.985 785.248 308.591C785.775 308.197 786.411 307.99 787.06 308C787.523 308.007 787.978 308.126 788.39 308.348C788.801 308.569 789.157 308.887 789.429 309.276C789.702 309.665 789.883 310.114 789.959 310.589C790.036 311.063 790.004 311.55 789.868 312.01L787.879 318.813C787.643 319.454 787.226 320.005 786.683 320.395C786.141 320.785 785.497 320.996 784.837 321Z" fill="#F4C2C9"/>
<path d="M797.901 321.999C797.439 321.969 796.99 321.832 796.586 321.596C796.182 321.361 795.833 321.035 795.566 320.641C795.3 320.247 795.121 319.796 795.043 319.32C794.966 318.845 794.992 318.358 795.12 317.894L804.971 285.294C805.16 284.642 805.541 284.069 806.062 283.657C806.583 283.244 807.215 283.015 807.869 283C808.35 282.994 808.827 283.106 809.26 283.325C809.693 283.545 810.071 283.867 810.364 284.265C810.656 284.664 810.856 285.128 810.946 285.622C811.036 286.115 811.014 286.623 810.882 287.105L801.031 319.705C800.811 320.385 800.389 320.974 799.827 321.386C799.264 321.799 798.589 322.014 797.901 321.999Z" fill="#FFE779"/>
<path d="M810.945 246.926C811.121 245.889 810.856 245 810.415 245C809.974 245 809.356 245.889 809.091 247.074C808.826 248.259 809.179 249 809.621 249C809.929 248.873 810.212 248.616 810.444 248.253C810.676 247.89 810.848 247.433 810.945 246.926Z" fill="#63737A"/>
<path d="M816.947 246.444C817.119 245.667 816.861 245 816.344 245C816.038 245.076 815.754 245.263 815.525 245.538C815.297 245.813 815.133 246.166 815.053 246.556C814.881 247.333 815.139 248 815.656 248C815.956 247.905 816.232 247.712 816.458 247.44C816.685 247.167 816.853 246.825 816.947 246.444Z" fill="#63737A"/>
<path d="M823.92 246.444C824.179 245.667 823.791 245 823.016 245C822.556 245.076 822.131 245.263 821.788 245.538C821.445 245.813 821.2 246.166 821.08 246.556C820.821 247.333 821.209 248 821.984 248C822.444 247.924 822.869 247.737 823.212 247.462C823.555 247.187 823.8 246.834 823.92 246.444Z" fill="#63737A"/>
<path d="M458 154.997C458 154.997 449.621 155.36 447.526 147.38C445.431 139.4 453.345 135.772 453.345 143.269C453.345 150.766 442.056 154.03 437.401 147.743C432.746 141.455 438.216 136.619 439.728 140.246C441.241 143.874 437.634 151.491 431 149.194" stroke="#6DAFA7" stroke-width="1.8" stroke-linecap="round" stroke-linejoin="round"/>
<path d="M559 167C559 167 573.471 166.154 572.529 155.403C571.588 144.651 562.176 164.584 574.765 164.342C587.353 164.101 586.647 151.899 582.882 151.054C579.118 150.208 580.059 159.631 587 159.027C593.941 158.423 595 154.074 595 154.074" stroke="#6DAFA7" stroke-width="1.8" stroke-linecap="round" stroke-linejoin="round"/>
<path d="M511 146C511 145.209 510.765 144.435 510.326 143.778C509.886 143.12 509.262 142.607 508.531 142.304C507.8 142.002 506.995 141.923 506.22 142.077C505.444 142.231 504.731 142.612 504.172 143.172C503.612 143.731 503.231 144.444 503.077 145.22C502.923 145.995 503.002 146.8 503.304 147.531C503.607 148.262 504.12 148.886 504.778 149.326C505.435 149.765 506.209 150 507 150C507.527 150.005 508.049 149.904 508.536 149.705C509.024 149.506 509.466 149.211 509.839 148.839C510.211 148.466 510.506 148.024 510.705 147.536C510.904 147.049 511.005 146.527 511 146Z" fill="#6DAFA7"/>
<path d="M530.94 101.794C531.17 105.028 530.741 108.275 529.678 111.336C528.615 114.397 526.942 117.208 524.76 119.596C520.246 124.506 517.742 130.95 517.749 137.637V141.818C517.737 142.924 517.294 143.98 516.517 144.761C515.74 145.543 514.689 145.988 513.59 146H501.469C500.369 145.988 499.319 145.543 498.541 144.761C497.764 143.98 497.322 142.924 497.31 141.818V137.637C497.338 130.981 494.829 124.568 490.298 119.715C486.232 115.342 483.98 109.573 484 103.586C484.012 97.4815 486.373 91.6186 490.588 87.2251C494.804 82.8317 500.546 80.2487 506.613 80.017C512.681 79.7854 518.602 81.9231 523.136 85.9825C527.671 90.0418 530.467 95.7078 530.94 101.794Z" fill="#FFE779"/>
<path d="M497 138H518" stroke="#22272E" stroke-width="1.8" stroke-linecap="round" stroke-linejoin="round"/>
<path d="M497 142H518" stroke="#22272E" stroke-width="1.8" stroke-linecap="round" stroke-linejoin="round"/>
<path d="M505 138V104.794C504.996 104.105 504.819 103.43 504.488 102.84C504.156 102.25 503.683 101.768 503.118 101.445C502.553 101.122 501.917 100.97 501.278 101.005C500.639 101.04 500.021 101.26 499.489 101.643C499.058 101.975 498.702 102.405 498.445 102.904C498.189 103.403 498.039 103.957 498.007 104.526C497.974 105.095 498.06 105.665 498.258 106.193C498.456 106.722 498.761 107.196 499.151 107.582L500.501 108.915" stroke="#22272E" stroke-width="1.8" stroke-linecap="round" stroke-linejoin="round"/>
<path d="M510 138V104.794C510.004 104.105 510.181 103.43 510.512 102.84C510.844 102.25 511.317 101.768 511.882 101.445C512.447 101.122 513.083 100.97 513.722 101.005C514.361 101.04 514.979 101.26 515.511 101.643C515.942 101.975 516.298 102.405 516.555 102.904C516.811 103.403 516.961 103.957 516.993 104.526C517.026 105.095 516.94 105.665 516.742 106.193C516.544 106.722 516.239 107.196 515.849 107.582L514.499 108.915" stroke="#22272E" stroke-width="1.8" stroke-linecap="round" stroke-linejoin="round"/>
<path d="M412.963 228.851L402.634 131.666C402.465 130.243 401.845 128.917 400.869 127.892C399.893 126.868 398.616 126.202 397.235 125.998L263.313 108.032C262.6 107.948 261.877 108.03 261.198 108.272C260.52 108.515 259.904 108.912 259.396 109.434C258.888 109.956 258.501 110.589 258.265 111.286C258.029 111.983 257.949 112.725 258.032 113.458L271.177 229.333C271.353 230.898 272.086 232.342 273.233 233.388C274.381 234.433 275.864 235.007 277.398 235L408.151 234.276C408.83 234.299 409.505 234.171 410.131 233.899C410.757 233.628 411.318 233.22 411.776 232.704C412.233 232.188 412.576 231.577 412.781 230.911C412.986 230.246 413.048 229.543 412.963 228.851Z" fill="#63737A"/>
<path d="M418.975 228.843L408.648 130.817C408.499 129.385 407.885 128.047 406.906 127.017C405.926 125.988 404.639 125.328 403.25 125.143L268.421 107.035C267.701 106.947 266.972 107.026 266.286 107.266C265.6 107.505 264.975 107.901 264.457 108.422C263.939 108.943 263.542 109.577 263.293 110.277C263.045 110.977 262.953 111.726 263.023 112.468L276.283 229.326C276.459 230.893 277.191 232.339 278.338 233.386C279.486 234.433 280.968 235.007 282.502 235L414.281 234.276C414.945 234.266 415.6 234.114 416.205 233.829C416.809 233.545 417.349 233.134 417.791 232.623C418.232 232.112 418.566 231.512 418.769 230.861C418.973 230.21 419.043 229.523 418.975 228.843Z" fill="#22272E"/>
<path d="M402 219H295.35L295 215.396L317.52 182.721C318.833 180.776 320.756 179.357 322.966 178.7C325.176 178.044 327.538 178.191 329.655 179.117L339.924 183.442C342.151 184.375 344.629 184.465 346.915 183.695C349.201 182.925 351.148 181.346 352.409 179.237L356.96 171.549C358.185 169.463 360.083 167.887 362.323 167.096C364.563 166.306 367.001 166.351 369.212 167.224C371.247 168.051 373.489 168.17 375.595 167.563C377.702 166.956 379.558 165.655 380.88 163.86L394.882 145L402 219Z" fill="#FFE779"/>
<path d="M295 215L287 143" stroke="#6DAFA7" stroke-width="1.8" stroke-linecap="round" stroke-linejoin="round"/>
<path d="M294 212L312.525 162.854C312.974 161.63 313.661 160.511 314.544 159.562C315.427 158.613 316.489 157.853 317.666 157.328C318.843 156.802 320.111 156.522 321.397 156.504C322.682 156.485 323.958 156.729 325.15 157.22L334.707 161.056C336.621 161.804 338.717 161.929 340.704 161.414C342.691 160.898 344.471 159.768 345.798 158.179L352.169 150.268C352.991 149.234 354.012 148.382 355.17 147.765C356.328 147.147 357.598 146.776 358.902 146.675C360.206 146.574 361.516 146.745 362.753 147.177C363.989 147.609 365.126 148.294 366.092 149.189C367.661 150.638 369.659 151.518 371.772 151.691C373.885 151.865 375.996 151.322 377.773 150.148L395 139" stroke="#6DAFA7" stroke-width="1.8" stroke-linecap="round" stroke-linejoin="round"/>
<path d="M285.707 133.531L285.011 127.614C284.985 127.397 285.005 127.177 285.072 126.969C285.138 126.762 285.248 126.574 285.394 126.419C285.539 126.264 285.716 126.147 285.911 126.076C286.106 126.006 286.314 125.984 286.518 126.012L311.666 128.847C312.033 128.89 312.377 129.057 312.648 129.323C312.919 129.589 313.103 129.941 313.173 130.326L313.984 135.75C314.013 135.919 314.003 136.092 313.955 136.256C313.907 136.42 313.822 136.568 313.708 136.69C313.594 136.811 313.454 136.901 313.3 136.952C313.147 137.003 312.984 137.014 312.825 136.983L287.213 135.011C287.022 135.022 286.831 134.993 286.651 134.924C286.471 134.856 286.305 134.749 286.165 134.611C286.024 134.473 285.911 134.306 285.832 134.121C285.754 133.935 285.711 133.735 285.707 133.531Z" fill="#6DAFA7"/>
<path d="M701.45 189.48C674.298 216.283 640.563 221.548 628.339 203.121C617.525 186.848 627.751 157.891 649.849 136.951C671.595 116.37 700.275 107.875 715.791 118.763C733.304 130.968 728.133 163.156 701.45 189.48Z" fill="#F8AB5D"/>
<path d="M697.412 185.48C670.273 212.283 636.555 217.548 624.337 199.121C613.528 182.848 623.749 153.891 645.836 132.951C667.571 112.37 696.237 103.875 711.745 114.763C729.367 127.088 724.08 159.275 697.412 185.48Z" fill="#FFE779"/>
<path d="M685.636 173.718C669.515 189.745 649.336 193.721 641.218 182.997C633.795 173.116 639.71 154.438 653.859 140.7C668.008 126.963 686.1 121.902 695.494 129.614C705.583 137.808 701.524 157.812 685.636 173.718Z" fill="#6DAFA7"/>
<path d="M675.65 162.983C669.256 169.059 661.118 170.812 657.631 166.956C654.144 163.1 656.469 155.621 662.513 149.895C668.558 144.169 676.347 142.299 680.067 145.688C683.787 149.077 682.043 156.906 675.65 162.983Z" fill="#F4C2C9"/>
<path d="M634.005 122.32C633.419 122.885 632.731 123.323 631.98 123.61C631.229 123.898 630.431 124.028 629.632 123.995C628.832 123.961 628.047 123.764 627.321 123.415C626.596 123.065 625.944 122.57 625.403 121.959L604.711 94.6036C604.195 93.9153 603.945 93.0527 604.01 92.1839C604.074 91.3151 604.449 90.5022 605.06 89.9038C605.681 89.322 606.489 89 607.326 89C608.164 89 608.972 89.322 609.593 89.9038L634.238 113.403C634.815 113.989 635.269 114.692 635.572 115.468C635.875 116.244 636.02 117.077 635.998 117.914C635.976 118.751 635.788 119.574 635.445 120.333C635.102 121.091 634.612 121.767 634.005 122.32Z" fill="#22272E"/>
<path d="M608.941 100.016L601.988 101.014C601.556 101.062 601.148 101.238 600.813 101.521C600.478 101.803 600.231 102.178 600.102 102.602C599.972 103.026 599.966 103.478 600.085 103.905C600.203 104.332 600.44 104.715 600.768 105.006C605.044 108.848 610.281 111.397 615.894 112.367L619.431 112.991C619.524 113.009 619.619 113 619.706 112.963C619.793 112.926 619.868 112.864 619.92 112.783C619.972 112.703 620 112.609 620 112.513C620 112.416 619.972 112.322 619.919 112.242L611.136 100.889C610.866 100.573 610.525 100.329 610.143 100.177C609.761 100.025 609.348 99.9698 608.941 100.016Z" fill="#6DAFA7"/>
<path d="M614.069 95.3729L615.534 88.7156C615.623 88.3049 615.822 87.9298 616.107 87.6344C616.392 87.339 616.751 87.1356 617.142 87.0481C617.532 86.9607 617.939 86.9928 618.313 87.1408C618.687 87.2888 619.013 87.5464 619.253 87.8834C622.424 92.3007 624.339 97.5782 624.775 103.1L625 106.548C625 106.904 624.549 107.142 624.324 106.904L614.745 97.6316C614.442 97.3606 614.217 97.0048 614.098 96.6051C613.978 96.2055 613.968 95.7783 614.069 95.3729Z" fill="#6DAFA7"/>
<path d="M633 122L640 129" stroke="#22272E" stroke-width="1.8" stroke-linecap="round" stroke-linejoin="round"/>
<path d="M773.486 185.182V167.568C773.48 167.154 773.32 166.759 773.039 166.466C772.759 166.173 772.381 166.006 771.984 166H764.362C763.966 166.006 763.587 166.173 763.307 166.466C763.027 166.759 762.867 167.154 762.861 167.568V185.182H758.472C758.214 185.179 757.96 185.247 757.736 185.38C757.511 185.514 757.325 185.707 757.196 185.94C757.067 186.173 756.999 186.438 757 186.708C757.001 186.977 757.071 187.242 757.202 187.474L766.787 203.278C766.912 203.498 767.089 203.68 767.302 203.807C767.515 203.933 767.755 204 768 204C768.245 204 768.485 203.933 768.698 203.807C768.911 203.68 769.088 203.498 769.213 203.278L778.798 187.474C778.929 187.242 778.999 186.977 779 186.708C779.001 186.438 778.933 186.173 778.804 185.94C778.675 185.707 778.489 185.514 778.264 185.38C778.04 185.247 777.786 185.179 777.528 185.182H773.486Z" fill="#6DAFA7"/>
<path d="M808.235 204.182V186.568C808.229 186.154 808.061 185.759 807.768 185.466C807.475 185.173 807.08 185.006 806.665 185H798.697C798.282 185.006 797.887 185.173 797.594 185.466C797.301 185.759 797.133 186.154 797.127 186.568V204.182H792.539C792.269 204.179 792.004 204.247 791.769 204.38C791.535 204.514 791.34 204.707 791.205 204.94C791.07 205.173 790.999 205.438 791 205.708C791.001 205.977 791.074 206.242 791.211 206.474L801.232 222.278C801.363 222.498 801.548 222.68 801.77 222.807C801.993 222.933 802.244 223 802.5 223C802.756 223 803.007 222.933 803.23 222.807C803.452 222.68 803.637 222.498 803.768 222.278L813.789 206.474C813.926 206.242 813.999 205.977 814 205.708C814.001 205.438 813.93 205.173 813.795 204.94C813.66 204.707 813.465 204.514 813.231 204.38C812.996 204.247 812.731 204.179 812.461 204.182H808.235Z" fill="#22272E"/>
<path d="M246.876 272.983C247.072 272.217 247.035 271.41 246.771 270.665C246.508 269.919 246.028 269.268 245.394 268.795C244.76 268.322 244 268.047 243.21 268.005C242.419 267.964 241.634 268.158 240.954 268.562C240.274 268.967 239.729 269.564 239.389 270.278C239.048 270.991 238.928 271.79 239.042 272.573C239.156 273.355 239.5 274.086 240.03 274.673C240.56 275.26 241.253 275.677 242.021 275.871C242.529 276.004 243.059 276.035 243.58 275.961C244.101 275.888 244.602 275.711 245.053 275.443C245.505 275.174 245.899 274.818 246.212 274.396C246.525 273.974 246.751 273.494 246.876 272.983Z" fill="#22272E"/>
<path d="M252.444 263.448L252.684 262.355C253.119 260.647 252.873 258.834 251.998 257.31C251.123 255.785 249.69 254.673 248.011 254.213C246.327 253.772 244.54 254.022 243.037 254.909C241.533 255.796 240.436 257.249 239.984 258.952L239.744 260.046C239.386 261.259 238.773 262.378 237.947 263.327C237.228 264.056 236.509 264.906 235.79 265.636C235.441 266.03 235.196 266.508 235.079 267.025C234.962 267.542 234.975 268.08 235.119 268.59C235.263 269.1 235.531 269.564 235.9 269.94C236.269 270.316 236.726 270.591 237.228 270.739L243.219 272.319L249.209 273.898C249.712 274.033 250.24 274.034 250.743 273.901C251.246 273.768 251.707 273.505 252.08 273.138C252.454 272.772 252.728 272.313 252.876 271.808C253.023 271.302 253.04 270.767 252.924 270.253C252.684 269.159 252.444 268.066 252.205 267.094C252.049 265.874 252.13 264.636 252.444 263.448Z" fill="#6DAFA7"/>
<path d="M138 219.345C138 219.345 182.164 209.029 181.455 185L249 190.461C249 190.461 248.173 219.951 204.128 235C204.01 235 157.13 228.568 138 219.345Z" fill="#FFE779"/>
<path d="M195 218L206 220" stroke="#22272E" stroke-width="1.8" stroke-linecap="round" stroke-linejoin="round"/>
<path d="M199 213L213 215" stroke="#22272E" stroke-width="1.8" stroke-linecap="round" stroke-linejoin="round"/>
<path d="M188 202C188 202 217.704 206.286 223 207" stroke="#22272E" stroke-width="1.8" stroke-linecap="round" stroke-linejoin="round"/>
<path d="M192.856 209.251C189.701 213.936 185.361 217.612 180.32 219.869C180.016 219.977 179.694 220.019 179.374 219.992C174.761 219.005 170.03 217.893 165.536 216.659C165.395 216.626 165.266 216.547 165.171 216.433C165.075 216.319 165.016 216.176 165.003 216.025C164.99 215.874 165.023 215.722 165.097 215.592C165.172 215.462 165.284 215.36 165.418 215.301C170.435 213.086 175.101 210.089 179.255 206.411C179.401 206.242 179.588 206.117 179.797 206.052C180.005 205.987 180.227 205.983 180.438 206.041C182.922 206.535 187.179 207.152 192.383 208.016C192.856 208.263 193.211 208.88 192.856 209.251Z" fill="#22272E"/>
<path d="M212.982 195.858C212.749 197.04 212.432 198.2 212.036 199.33C211.965 199.563 211.816 199.758 211.619 199.877C211.422 199.996 211.191 200.03 210.972 199.973L187.913 197.272C187.754 197.254 187.601 197.196 187.466 197.102C187.331 197.007 187.219 196.88 187.139 196.729C187.058 196.579 187.011 196.41 187.002 196.236C186.992 196.062 187.021 195.889 187.085 195.729C187.446 194.828 187.685 193.875 187.795 192.9C187.867 192.65 188.007 192.43 188.197 192.269C188.387 192.108 188.618 192.014 188.859 192L212.036 194.315C212.627 194.7 213.1 195.215 212.982 195.858Z" fill="#6DAFA7"/>
<path d="M611.192 231.777C606.616 241.962 595.587 248.672 588.077 246.635C581.507 244.838 580.216 236.81 584.44 228.901C588.429 221.232 596.76 215.241 603.8 215.001C611.661 214.882 615.533 222.191 611.192 231.777Z" fill="#F8AB5D"/>
<path d="M609.172 229.779C604.599 239.963 593.578 246.672 586.073 244.635C579.507 242.838 578.217 234.811 582.438 226.904C586.425 219.236 594.75 213.245 601.785 213.006C609.759 212.766 613.511 220.074 609.172 229.779Z" fill="#FFE779"/>
<path d="M605.493 229.716C601.936 237.066 593.753 242.083 587.943 240.8C582.725 239.633 581.539 233.683 584.859 227.5C588.061 221.667 594.702 217 600.157 217C606.205 217 608.932 222.6 605.493 229.716Z" fill="#F8AB5D"/>
<path d="M589.995 236.138L590.454 235.275C590.569 234.906 590.569 234.659 590.339 234.536C589.85 234.384 589.412 234.084 589.075 233.674C588.961 233.551 588.961 233.181 589.19 232.812L589.305 232.688C589.535 232.319 589.995 232.196 590.109 232.442C590.433 232.789 590.83 233.048 591.266 233.196C591.702 233.344 592.165 233.377 592.616 233.292C593.067 233.208 593.492 233.008 593.856 232.71C594.219 232.412 594.511 232.024 594.705 231.58C594.836 231.356 594.922 231.106 594.958 230.845C594.994 230.584 594.979 230.317 594.914 230.063C594.85 229.808 594.736 229.57 594.582 229.365C594.427 229.16 594.234 228.991 594.016 228.87C592.752 227.884 592.177 226.775 593.096 225.051C593.457 224.313 593.962 223.666 594.577 223.156C595.191 222.646 595.901 222.284 596.658 222.094C596.815 222.071 596.963 222.001 597.085 221.892C597.206 221.783 597.297 221.64 597.347 221.478L597.807 220.616C597.88 220.447 597.992 220.302 598.133 220.194C598.274 220.086 598.439 220.019 598.611 220C598.841 220 598.956 220.246 598.841 220.616L598.496 221.355C598.381 221.725 598.381 221.971 598.726 221.971C599.133 222.06 599.523 222.227 599.875 222.464C600.105 222.587 599.99 222.957 599.76 223.326L599.645 223.449C599.55 223.61 599.409 223.732 599.243 223.799C599.077 223.866 598.896 223.873 598.726 223.819C598.288 223.492 597.766 223.32 597.232 223.326C596.708 223.274 596.181 223.401 595.727 223.688C595.273 223.976 594.915 224.409 594.705 224.928C594.245 225.913 594.59 226.529 595.624 227.391C595.951 227.593 596.234 227.867 596.454 228.194C596.675 228.522 596.828 228.896 596.904 229.292C596.98 229.687 596.977 230.096 596.895 230.49C596.813 230.885 596.654 231.256 596.428 231.58C596.07 232.415 595.527 233.143 594.846 233.702C594.166 234.26 593.367 234.631 592.522 234.783C592.365 234.806 592.217 234.876 592.095 234.985C591.974 235.094 591.883 235.237 591.833 235.399L591.373 236.384C591.29 236.544 591.175 236.683 591.036 236.789C590.897 236.896 590.737 236.968 590.569 237C589.88 236.754 589.765 236.507 589.995 236.138Z" fill="#FFE779"/>
<path d="M234 408H222.583L222 430H232.951L234 408Z" fill="#6DAFA7"/>
<path d="M221.944 430L215.005 644.921C214.978 645.454 215.058 645.987 215.242 646.486C215.426 646.986 215.708 647.441 216.073 647.824C216.437 648.207 216.875 648.509 217.359 648.711C217.844 648.913 218.363 649.011 218.887 648.999C219.877 649.004 220.832 648.621 221.554 647.929C222.276 647.237 222.711 646.29 222.768 645.281L233 430H221.944Z" fill="#B0D7C0"/>
<path d="M804.301 408H793L793.932 430H805L804.301 408Z" fill="#6DAFA7"/>
<path d="M794 430L804.233 645.219C804.28 646.269 804.734 647.256 805.495 647.964C806.256 648.673 807.261 649.044 808.291 648.996C809.32 648.948 810.289 648.486 810.984 647.71C811.679 646.934 812.043 645.909 811.996 644.859L805.056 430H794Z" fill="#B0D7C0"/>
<path d="M264.379 379L258.004 581.514C257.982 581.968 258.05 582.421 258.203 582.847C258.357 583.272 258.593 583.66 258.898 583.987C259.202 584.314 259.568 584.572 259.972 584.746C260.377 584.921 260.812 585.007 261.25 585C262.092 585.006 262.904 584.67 263.511 584.064C264.118 583.457 264.471 582.628 264.495 581.755L274 379H264.379Z" fill="#B0D7C0"/>
<path d="M762.621 379L768.996 581.514C769.018 581.968 768.95 582.421 768.797 582.847C768.643 583.272 768.407 583.66 768.102 583.987C767.798 584.314 767.432 584.572 767.028 584.746C766.623 584.921 766.188 585.007 765.75 585C764.908 585.006 764.096 584.67 763.489 584.064C762.882 583.457 762.529 582.628 762.505 581.755L753 379H762.621Z" fill="#B0D7C0"/>
<path d="M837 404H190L257.809 371H769.308L837 404Z" fill="white"/>
<path d="M837 404H190V413H837V404Z" fill="#B0D7C0"/>
<path d="M720.069 371.528C720.069 371.528 714.477 368.764 712.573 363.235C710.669 357.707 714.001 353.981 715.429 354.341C716.857 354.702 718.998 361.673 720.783 361.673C722.568 361.673 722.211 349.413 725.78 348.091C729.35 346.769 728.993 360.231 729.112 361.312C729.35 364.077 733.991 358.067 735.656 355.663C737.679 352.659 744.224 363.476 730.54 371.528C727.077 372.157 723.532 372.157 720.069 371.528Z" fill="#6DAFA7"/>
<path d="M742.995 373.235V373.704C742.84 380.688 741.511 387.593 739.064 394.122C738.841 394.659 738.473 395.12 738.002 395.452C737.531 395.785 736.977 395.975 736.404 396H715.592C715.013 395.997 714.449 395.816 713.974 395.481C713.5 395.146 713.136 394.672 712.932 394.122C710.474 387.596 709.145 380.689 709.001 373.704V373.235C708.992 372.939 709.042 372.645 709.149 372.37C709.256 372.095 709.417 371.845 709.623 371.636C709.829 371.427 710.075 371.263 710.346 371.155C710.617 371.046 710.907 370.995 711.198 371.005H740.798C741.092 370.984 741.387 371.028 741.662 371.132C741.938 371.237 742.189 371.4 742.397 371.612C742.605 371.823 742.767 372.077 742.87 372.357C742.973 372.637 743.016 372.937 742.995 373.235Z" fill="#22272E"/>
<path d="M664 364C654.874 364.969 652.535 390.525 635.219 393.068C635.219 393.068 632.06 393.189 626.913 393.31C612.054 393.795 581.401 394.521 569 393.431C570.799 393.419 572.596 393.298 574.382 393.068C579.764 392.341 583.624 389.313 586.783 385.68C593.803 377.202 596.962 364.727 603.163 364.121H664V364Z" fill="#22272E"/>
<path d="M586 386C582.904 389.62 578.436 392.007 573.508 392.672C571.71 392.883 569.9 392.993 568.088 393C554.889 393 551 386.219 551 386.219C551 386.219 572.094 387.094 586 386Z" fill="#6DAFA7"/>
<path d="M497.631 396H412V389H504C504.003 389.92 503.84 390.832 503.522 391.683C503.203 392.534 502.733 393.307 502.141 393.957C501.549 394.608 500.846 395.124 500.072 395.474C499.298 395.825 498.468 396.003 497.631 396Z" fill="#22272E"/>
<path d="M430.882 396H298.926C296.844 395.988 294.825 395.272 293.182 393.965C291.54 392.658 290.367 390.833 289.846 388.774L268.148 300.503C267.963 299.733 267.951 298.931 268.113 298.155C268.275 297.38 268.607 296.653 269.083 296.027C269.56 295.401 270.169 294.894 270.865 294.543C271.56 294.192 272.325 294.006 273.101 294H405.057C407.139 294.012 409.159 294.728 410.801 296.035C412.444 297.342 413.616 299.167 414.137 301.225L435.835 389.497C436.032 390.268 436.053 391.074 435.896 391.854C435.739 392.635 435.408 393.367 434.929 393.996C434.451 394.625 433.836 395.133 433.135 395.48C432.433 395.828 431.662 396.005 430.882 396Z" fill="#22272E"/>
<path d="M352.992 352.529C356.1 348.871 354.775 342.475 350.032 338.242C345.289 334.01 338.925 333.544 335.816 337.202C332.708 340.859 334.033 347.256 338.776 351.489C343.519 355.721 349.883 356.187 352.992 352.529Z" fill="#63737A"/>
<path d="M504.623 383H476.493C475.832 382.997 475.2 382.723 474.734 382.239C474.267 381.755 474.003 381.1 474 380.415C474.009 376.86 475.375 373.454 477.8 370.94C480.224 368.426 483.509 367.01 486.938 367H494.059C497.488 367.01 500.773 368.426 503.197 370.94C505.622 373.454 506.988 376.86 506.997 380.415C507.013 380.749 506.964 381.082 506.852 381.395C506.739 381.708 506.567 381.994 506.345 382.236C506.123 382.478 505.856 382.67 505.56 382.802C505.264 382.933 504.945 383 504.623 383Z" fill="#22272E"/>
<path d="M674.32 385.55C671.745 385.076 667.531 383.774 666.127 379.037C664.722 374.301 675.373 364 678.65 364C681.927 364 687.897 367.315 691.057 371.815C694.217 376.314 688.365 379.156 689.067 381.287C689.769 383.418 683.215 387.326 674.32 385.55Z" fill="white" stroke="#B0D7C0" stroke-width="1.8" stroke-linecap="round" stroke-linejoin="round"/>
<path d="M666 379.001C666 379.001 671.423 382.947 673.961 381.786C676.5 380.626 678.461 377.376 682.961 377.84C687.461 378.305 686.538 370.413 682.961 369.136C679.384 367.859 676.846 375.983 673.961 376.1C671.077 376.216 670.385 374.359 673.038 372.27" fill="white"/>
<path d="M666 379.001C666 379.001 671.423 382.947 673.961 381.786C676.5 380.626 678.461 377.376 682.961 377.84C687.461 378.305 686.538 370.413 682.961 369.136C679.384 367.859 676.846 375.983 673.961 376.1C671.077 376.216 670.385 374.359 673.038 372.27" stroke="#B0D7C0" stroke-width="1.8" stroke-linecap="round" stroke-linejoin="round"/>
<path d="M660.078 393.336C660.078 393.336 662.939 389.72 661.68 387.725C660.422 385.73 659.392 385.107 658.82 383.985C658.019 382.24 658.134 378.499 656.303 376.629C654.473 374.759 651.498 377.751 644.634 376.754C639.371 376.006 634.566 384.858 636.397 387.351C637.076 388.495 637.927 389.507 638.914 390.343C638.914 390.343 637.884 392.587 638.456 393.959C639.028 395.33 643.032 397.325 649.096 397.948C655.159 398.572 660.078 393.336 660.078 393.336Z" fill="white" stroke="#B0D7C0" stroke-width="1.8" stroke-linecap="round" stroke-linejoin="round"/>
<path d="M639 390.494C639 390.494 644.548 394.799 648.477 393.868C652.407 392.937 656.221 385.724 655.99 383.746C655.759 381.768 654.141 380.837 650.211 384.444C646.281 388.051 643.276 387.12 643.623 383.979" fill="white"/>
<path d="M639 390.494C639 390.494 644.548 394.799 648.477 393.868C652.407 392.937 656.221 385.724 655.99 383.746C655.759 381.768 654.141 380.837 650.211 384.444C646.281 388.051 643.276 387.12 643.623 383.979" stroke="#B0D7C0" stroke-width="1.8" stroke-linecap="round" stroke-linejoin="round"/>
</svg>
