<svg width="1024" height="768" viewBox="0 0 1024 768" fill="none" xmlns="http://www.w3.org/2000/svg">
<mask id="mask0_820_1982" style="mask-type:luminance" maskUnits="userSpaceOnUse" x="66" y="104" width="891" height="500">
<path d="M847.176 603.67L161.287 583.415C145.865 582.973 131.128 576.752 119.838 565.916C108.547 555.08 101.477 540.374 99.9523 524.551L66.845 187.409C65.9635 178.384 66.9103 169.27 69.6253 160.642C72.3403 152.014 76.7644 144.062 82.6172 137.288C88.47 130.515 95.6239 125.068 103.626 121.293C111.628 117.518 120.303 115.497 129.103 115.358L892.55 104.483C901.629 104.356 910.628 106.235 918.944 109.993C927.259 113.75 934.697 119.3 940.758 126.267C946.819 133.235 951.362 141.46 954.081 150.388C956.8 159.316 957.633 168.741 956.522 178.029L912.071 546.302C910.113 562.469 902.38 577.304 890.38 587.912C878.381 598.519 862.978 604.137 847.176 603.67Z" fill="white"/>
</mask>
<g mask="url(#mask0_820_1982)">
<path d="M748.382 695.161H1296.43C1301.68 695.161 1306.71 693.012 1310.42 689.188C1314.13 685.364 1316.22 680.177 1316.22 674.769V354.484C1316.22 349.076 1314.13 343.89 1310.42 340.065C1306.71 336.241 1301.68 334.093 1296.43 334.093H748.382C743.135 334.093 738.102 336.241 734.392 340.065C730.681 343.89 728.597 349.076 728.597 354.484V674.769C728.597 680.177 730.681 685.364 734.392 689.188C738.102 693.012 743.135 695.161 748.382 695.161Z" stroke="#B8D8C7" stroke-width="1.8" stroke-linecap="round" stroke-linejoin="round"/>
<path d="M24.1105 673.682H576.911C582.158 673.682 587.191 671.533 590.901 667.709C594.612 663.885 596.696 658.698 596.696 653.29V185.234C596.696 179.826 594.612 174.639 590.901 170.815C587.191 166.991 582.158 164.842 576.911 164.842H24.1105C18.8631 164.842 13.8306 166.991 10.1202 170.815C6.40971 174.639 4.3252 179.826 4.3252 185.234V653.29C4.3252 658.698 6.40971 663.885 10.1202 667.709C13.8306 671.533 18.8631 673.682 24.1105 673.682Z" stroke="#B8D8C7" stroke-width="1.8" stroke-linecap="round" stroke-linejoin="round"/>
<path d="M879.888 238.388H998.468V226.289H879.888C879.576 226.287 879.267 226.349 878.978 226.472C878.689 226.594 878.427 226.774 878.206 227.002C877.985 227.229 877.81 227.5 877.691 227.798C877.573 228.095 877.513 228.414 877.514 228.736V235.805C877.488 236.14 877.531 236.476 877.639 236.792C877.747 237.109 877.919 237.398 878.143 237.642C878.367 237.885 878.638 238.078 878.939 238.206C879.239 238.335 879.563 238.397 879.888 238.388Z" stroke="#B8D8C7" stroke-width="1.8" stroke-linecap="round" stroke-linejoin="round"/>
<path d="M901.389 226.289H928.165C929.56 226.293 930.908 225.769 931.953 224.817C932.998 223.865 933.669 222.55 933.837 221.123L935.947 201.547C936.034 200.726 935.952 199.894 935.707 199.108C935.462 198.321 935.058 197.596 934.523 196.98C933.988 196.365 933.334 195.872 932.602 195.535C931.87 195.197 931.077 195.023 930.275 195.022H899.278C898.477 195.025 897.685 195.201 896.954 195.539C896.223 195.877 895.57 196.37 895.035 196.985C894.5 197.6 894.097 198.324 893.851 199.11C893.605 199.896 893.522 200.726 893.606 201.547L895.717 221.123C895.865 222.559 896.529 223.885 897.579 224.842C898.629 225.798 899.988 226.314 901.389 226.289Z" stroke="#B8D8C7" stroke-width="1.8" stroke-linecap="round" stroke-linejoin="round"/>
<path d="M917.876 195.158C917.876 195.158 928.428 194.07 930.539 179.388C930.539 179.388 921.042 182.243 918.008 189.176C918.008 189.176 916.689 173.679 909.566 172.183C909.566 172.183 906.401 183.738 911.413 189.448C911.413 189.448 907.588 182.923 897.827 183.059C898.749 185.922 900.337 188.509 902.453 190.594C904.568 192.679 907.146 194.2 909.962 195.022" fill="#B8D8C7"/>
<path d="M752.604 401.657H871.58C873.046 401.647 874.449 401.042 875.486 399.973C876.522 398.905 877.109 397.459 877.12 395.948V358.699C877.109 357.188 876.522 355.742 875.486 354.673C874.449 353.605 873.046 353 871.58 352.989H752.604C751.138 353 749.735 353.605 748.698 354.673C747.662 355.742 747.075 357.188 747.064 358.699V395.948C747.075 397.459 747.662 398.905 748.698 399.973C749.735 401.042 751.138 401.647 752.604 401.657Z" stroke="#B8D8C7" stroke-width="1.8" stroke-linecap="round" stroke-linejoin="round"/>
<path d="M798.373 366.04H825.809C826.33 366.026 826.825 365.807 827.193 365.427C827.562 365.048 827.774 364.537 827.788 364.001C827.774 363.464 827.562 362.953 827.193 362.574C826.825 362.194 826.33 361.975 825.809 361.961H798.373C797.853 361.975 797.357 362.194 796.989 362.574C796.621 362.953 796.408 363.464 796.395 364.001C796.39 364.27 796.437 364.538 796.535 364.787C796.632 365.037 796.778 365.264 796.962 365.455C797.147 365.645 797.368 365.795 797.61 365.896C797.853 365.996 798.112 366.045 798.373 366.04Z" fill="#B8D8C7"/>
<path d="M752.605 463.92H871.58C873.046 463.909 874.449 463.304 875.486 462.236C876.523 461.167 877.11 459.721 877.12 458.21V420.961C877.11 419.45 876.523 418.004 875.486 416.936C874.449 415.867 873.046 415.262 871.58 415.252H752.605C751.139 415.262 749.736 415.867 748.699 416.936C747.662 418.004 747.075 419.45 747.065 420.961V458.074C747.056 458.833 747.192 459.586 747.466 460.29C747.74 460.995 748.146 461.637 748.66 462.18C749.174 462.722 749.788 463.155 750.464 463.454C751.141 463.753 751.868 463.911 752.605 463.92Z" stroke="#B8D8C7" stroke-width="1.8" stroke-linecap="round" stroke-linejoin="round"/>
<path d="M798.373 428.302H825.809C826.33 428.289 826.825 428.069 827.193 427.69C827.562 427.31 827.774 426.8 827.788 426.263C827.774 425.727 827.562 425.216 827.193 424.836C826.825 424.457 826.33 424.238 825.809 424.224H798.373C797.853 424.238 797.357 424.457 796.989 424.836C796.621 425.216 796.408 425.727 796.395 426.263C796.39 426.532 796.437 426.8 796.535 427.05C796.632 427.3 796.778 427.527 796.962 427.717C797.147 427.908 797.368 428.058 797.61 428.158C797.853 428.259 798.112 428.308 798.373 428.302Z" fill="#B8D8C7"/>
<path d="M141.636 507.83H260.611C262.077 507.819 263.48 507.214 264.517 506.145C265.553 505.077 266.14 503.631 266.151 502.12V464.871C266.14 463.36 265.553 461.914 264.517 460.846C263.48 459.777 262.077 459.172 260.611 459.161H141.636C140.17 459.172 138.766 459.777 137.73 460.846C136.693 461.914 136.106 463.36 136.096 464.871V502.12C136.106 503.631 136.693 505.077 137.73 506.145C138.766 507.214 140.17 507.819 141.636 507.83Z" stroke="#B8D8C7" stroke-width="1.8" stroke-linecap="round" stroke-linejoin="round"/>
<path d="M187.535 472.348H214.97C215.491 472.334 215.986 472.115 216.354 471.736C216.723 471.356 216.935 470.846 216.949 470.309C216.935 469.773 216.723 469.262 216.354 468.882C215.986 468.503 215.491 468.284 214.97 468.27H187.535C187.014 468.284 186.519 468.503 186.15 468.882C185.782 469.262 185.569 469.773 185.556 470.309C185.551 470.578 185.598 470.846 185.696 471.096C185.793 471.346 185.939 471.573 186.124 471.763C186.308 471.954 186.529 472.104 186.771 472.204C187.014 472.305 187.273 472.354 187.535 472.348Z" fill="#B8D8C7"/>
<path d="M294.376 507.83H413.351C414.817 507.819 416.22 507.214 417.257 506.145C418.294 505.077 418.881 503.631 418.891 502.12V464.871C418.881 463.36 418.294 461.914 417.257 460.846C416.22 459.777 414.817 459.172 413.351 459.161H294.376C292.91 459.172 291.507 459.777 290.47 460.846C289.433 461.914 288.846 463.36 288.836 464.871V502.12C288.846 503.631 289.433 505.077 290.47 506.145C291.507 507.214 292.91 507.819 294.376 507.83Z" stroke="#B8D8C7" stroke-width="1.8" stroke-linecap="round" stroke-linejoin="round"/>
<path d="M340.278 472.348H367.713C368.234 472.334 368.729 472.115 369.098 471.736C369.466 471.356 369.678 470.846 369.692 470.309C369.678 469.773 369.466 469.262 369.098 468.882C368.729 468.503 368.234 468.284 367.713 468.27H340.278C339.757 468.284 339.262 468.503 338.894 468.882C338.525 469.262 338.313 469.773 338.299 470.309C338.294 470.578 338.341 470.846 338.439 471.096C338.536 471.346 338.682 471.573 338.867 471.763C339.052 471.954 339.272 472.104 339.514 472.204C339.757 472.305 340.016 472.354 340.278 472.348Z" fill="#B8D8C7"/>
<path d="M904.289 401.657H1023.26C1024.73 401.647 1026.13 401.042 1027.17 399.973C1028.21 398.905 1028.79 397.459 1028.8 395.948V358.699C1028.79 357.188 1028.21 355.742 1027.17 354.673C1026.13 353.605 1024.73 353 1023.26 352.989H904.289C902.823 353 901.42 353.605 900.383 354.673C899.346 355.742 898.759 357.188 898.749 358.699V395.948C898.759 397.459 899.346 398.905 900.383 399.973C901.42 401.042 902.823 401.647 904.289 401.657Z" stroke="#B8D8C7" stroke-width="1.8" stroke-linecap="round" stroke-linejoin="round"/>
<path d="M950.06 366.04H977.496C978.016 366.026 978.512 365.807 978.88 365.427C979.248 365.048 979.461 364.537 979.474 364.001C979.461 363.464 979.248 362.953 978.88 362.574C978.512 362.194 978.016 361.975 977.496 361.961H950.06C949.539 361.975 949.044 362.194 948.676 362.574C948.308 362.953 948.095 363.464 948.081 364.001C948.076 364.27 948.124 364.538 948.221 364.787C948.319 365.037 948.464 365.264 948.649 365.455C948.834 365.645 949.054 365.795 949.297 365.896C949.539 365.996 949.799 366.045 950.06 366.04Z" fill="#B8D8C7"/>
<path d="M904.289 463.92H1023.26C1024.73 463.909 1026.13 463.304 1027.17 462.236C1028.21 461.167 1028.79 459.721 1028.8 458.21V420.961C1028.79 419.45 1028.21 418.004 1027.17 416.936C1026.13 415.867 1024.73 415.262 1023.26 415.252H904.289C902.823 415.262 901.42 415.867 900.383 416.936C899.347 418.004 898.76 419.45 898.749 420.961V458.074C898.741 458.833 898.877 459.586 899.151 460.29C899.424 460.995 899.83 461.637 900.345 462.18C900.859 462.722 901.472 463.155 902.149 463.454C902.826 463.753 903.553 463.911 904.289 463.92Z" stroke="#B8D8C7" stroke-width="1.8" stroke-linecap="round" stroke-linejoin="round"/>
<path d="M950.06 428.302H977.496C978.016 428.289 978.512 428.069 978.88 427.69C979.248 427.31 979.461 426.8 979.474 426.263C979.461 425.727 979.248 425.216 978.88 424.836C978.512 424.457 978.016 424.238 977.496 424.224H950.06C949.539 424.238 949.044 424.457 948.676 424.836C948.308 425.216 948.095 425.727 948.081 426.263C948.076 426.532 948.124 426.8 948.221 427.05C948.319 427.3 948.464 427.527 948.649 427.717C948.834 427.908 949.054 428.058 949.297 428.158C949.539 428.259 949.799 428.308 950.06 428.302Z" fill="#B8D8C7"/>
<path d="M-31.5526 307.312H568.6C570.204 307.294 571.738 306.63 572.872 305.461C574.006 304.292 574.651 302.711 574.668 301.058V192.711C574.651 191.058 574.006 189.477 572.872 188.309C571.738 187.14 570.204 186.475 568.6 186.457H-31.5526C-33.1565 186.475 -34.6898 187.14 -35.824 188.309C-36.9582 189.477 -37.6029 191.058 -37.6201 192.711V301.058C-37.6218 301.88 -37.4661 302.694 -37.1618 303.454C-36.8575 304.213 -36.4106 304.903 -35.8469 305.484C-35.2831 306.065 -34.6135 306.526 -33.8766 306.84C-33.1397 307.153 -32.3499 307.314 -31.5526 307.312Z" stroke="#B8D8C7" stroke-width="1.8" stroke-linecap="round" stroke-linejoin="round"/>
<path d="M-31.5526 441.897H568.6C570.204 441.879 571.738 441.215 572.872 440.046C574.006 438.877 574.651 437.296 574.668 435.643V327.296C574.651 325.643 574.006 324.062 572.872 322.893C571.738 321.724 570.204 321.06 568.6 321.042H-31.5526C-33.1565 321.06 -34.6899 321.724 -35.824 322.893C-36.9582 324.062 -37.603 325.643 -37.6201 327.296V435.643C-37.603 437.296 -36.9582 438.877 -35.824 440.046C-34.6899 441.215 -33.1565 441.879 -31.5526 441.897Z" stroke="#B8D8C7" stroke-width="1.8" stroke-linecap="round" stroke-linejoin="round"/>
<path d="M534.346 238.959H521.288V307.339H534.346V238.959Z" stroke="#B8D8C7" stroke-width="1.8" stroke-linecap="round" stroke-linejoin="round"/>
<path d="M521.234 257.611H507.648V307.366H521.234V257.611Z" stroke="#B8D8C7" stroke-width="1.8" stroke-linecap="round" stroke-linejoin="round"/>
<path d="M140.778 373.327H127.72V441.707H140.778V373.327Z" stroke="#B8D8C7" stroke-width="1.8" stroke-linecap="round" stroke-linejoin="round"/>
<path d="M127.667 391.978H114.081V441.734H127.667V391.978Z" stroke="#B8D8C7" stroke-width="1.8" stroke-linecap="round" stroke-linejoin="round"/>
<path d="M167.276 373.327H154.218V441.707H167.276V373.327Z" stroke="#B8D8C7" stroke-width="1.8" stroke-linecap="round" stroke-linejoin="round"/>
<path d="M179.498 371.784L167.046 375.836L187.019 441.044L199.471 436.992L179.498 371.784Z" stroke="#B8D8C7" stroke-width="1.8" stroke-linecap="round" stroke-linejoin="round"/>
<path d="M154.298 391.978H140.712V441.734H154.298V391.978Z" stroke="#B8D8C7" stroke-width="1.8" stroke-linecap="round" stroke-linejoin="round"/>
<path d="M127.915 247.904L126.464 227.649C126.436 227.331 126.474 227.012 126.574 226.711C126.675 226.41 126.837 226.135 127.049 225.903C127.261 225.672 127.519 225.489 127.805 225.368C128.09 225.247 128.398 225.191 128.707 225.202H140.05C140.355 225.203 140.657 225.268 140.937 225.393C141.218 225.519 141.47 225.701 141.68 225.93C141.889 226.159 142.052 226.429 142.157 226.724C142.263 227.02 142.309 227.334 142.292 227.649L140.842 247.904C140.842 247.904 152.713 255.789 152.581 262.314C152.449 267.344 149.547 291.406 148.228 302.01C148.06 303.437 147.39 304.752 146.345 305.704C145.299 306.656 143.951 307.18 142.556 307.176H126.2C124.805 307.18 123.457 306.656 122.412 305.704C121.367 304.752 120.697 303.437 120.529 302.01C119.21 291.406 116.308 267.344 116.176 262.314C116.044 255.789 127.915 247.904 127.915 247.904Z" fill="#B8D8C7"/>
<path d="M970.901 570.093H-289.816" stroke="#B8D8C7" stroke-width="1.8" stroke-linecap="round" stroke-linejoin="round"/>
</g>
<path d="M394.624 443H286.375C284.686 442.996 283.066 442.299 281.871 441.062C280.676 439.824 280.003 438.146 280 436.396V418.604C280.003 416.854 280.676 415.176 281.871 413.938C283.066 412.7 284.686 412.004 286.375 412H394.624C396.314 412.004 397.933 412.7 399.128 413.938C400.323 415.176 400.996 416.854 400.999 418.604V436.261C401.011 437.138 400.856 438.009 400.541 438.823C400.227 439.638 399.76 440.38 399.167 441.006C398.574 441.633 397.868 442.131 397.088 442.474C396.308 442.816 395.471 442.995 394.624 443Z" stroke="#B8D8C7" stroke-width="1.8" stroke-linecap="round" stroke-linejoin="round"/>
<path d="M379 384H301V412H379V384Z" stroke="#B8D8C7" stroke-width="1.8" stroke-linecap="round" stroke-linejoin="round"/>
<path d="M291.5 424C292.328 424 293 423.105 293 422C293 420.895 292.328 420 291.5 420C290.672 420 290 420.895 290 422C290 423.105 290.672 424 291.5 424Z" fill="#B8D8C7"/>
<path d="M374 459H360.447L359 476H372.026L374 459Z" fill="#6DAFA7"/>
<path d="M359.66 476L342.009 677.669C341.973 678.213 342.046 678.759 342.224 679.275C342.402 679.79 342.682 680.264 343.047 680.668C343.412 681.072 343.854 681.399 344.347 681.628C344.84 681.856 345.374 681.983 345.917 682C346.885 681.999 347.819 681.64 348.54 680.991C349.261 680.341 349.718 679.448 349.824 678.481L373 476H359.66Z" fill="#B0D7C0"/>
<path d="M492.553 459H479L480.974 476H494L492.553 459Z" fill="#B0D7C0"/>
<path d="M482 476L503.684 678.67C503.833 679.668 504.331 680.567 505.078 681.183C505.824 681.798 506.762 682.083 507.698 681.979C508.633 681.875 509.497 681.39 510.11 680.623C510.723 679.857 511.04 678.867 510.996 677.857L494.481 476H482Z" fill="#B0D7C0"/>
<path d="M498 569H358V576H498V569Z" fill="#B0D7C0"/>
<path d="M506.269 464H346.6C345.995 464.003 345.395 463.882 344.835 463.642C344.276 463.402 343.767 463.049 343.339 462.604C342.912 462.158 342.573 461.628 342.343 461.044C342.113 460.461 341.997 459.836 342 459.205V458.794C341.997 458.164 342.113 457.539 342.343 456.955C342.573 456.372 342.912 455.842 343.339 455.396C343.767 454.95 344.276 454.597 344.835 454.358C345.395 454.118 345.995 453.996 346.6 454H506.4C507.005 453.996 507.605 454.118 508.165 454.358C508.724 454.597 509.233 454.95 509.661 455.396C510.088 455.842 510.427 456.372 510.657 456.955C510.887 457.539 511.003 458.164 511 458.794V459.205C510.979 460.494 510.47 461.722 509.583 462.62C508.697 463.518 507.505 464.014 506.269 464Z" fill="#22272E"/>
<path d="M753.631 379.959L635.803 372.52C633.731 372.402 631.707 371.832 629.866 370.847C628.024 369.862 626.409 368.486 625.126 366.81C623.843 365.133 622.922 363.195 622.425 361.125C621.928 359.055 621.866 356.899 622.243 354.802L667.136 96.335C667.909 92.0253 670.02 88.0887 673.153 85.1143C676.285 82.1398 680.271 80.2874 684.514 79.8342L802.868 68.0672C805.117 67.8488 807.386 68.1645 809.498 68.9899C811.61 69.8153 813.509 71.1283 815.048 72.8275C816.588 74.5268 817.726 76.5668 818.377 78.7901C819.027 81.0134 819.171 83.3605 818.798 85.65L774.036 363.188C773.279 368.092 770.767 372.529 766.993 375.631C763.219 378.733 758.454 380.277 753.631 379.959Z" fill="#F8AB5D"/>
<path d="M746.631 378.965L628.803 371.526C626.731 371.408 624.707 370.837 622.866 369.853C621.024 368.868 619.409 367.492 618.126 365.815C616.843 364.139 615.922 362.201 615.425 360.131C614.928 358.06 614.866 355.905 615.243 353.808L660.136 95.3355C660.909 91.0257 663.02 87.0891 666.153 84.1146C669.285 81.1401 673.271 79.2876 677.514 78.8344L795.868 67.0672C798.117 66.8488 800.386 67.1645 802.498 67.9899C804.61 68.8153 806.509 70.1283 808.048 71.8276C809.588 73.5269 810.727 75.567 811.377 77.7903C812.027 80.0137 812.171 82.3607 811.798 84.6503L767.036 362.193C766.257 367.087 763.739 371.51 759.97 374.608C756.201 377.705 751.449 379.258 746.631 378.965Z" fill="#FFE779"/>
<mask id="mask1_820_1982" style="mask-type:luminance" maskUnits="userSpaceOnUse" x="615" y="67" width="198" height="313">
<path d="M747.15 379.297L629.174 371.859C627.099 371.74 625.072 371.17 623.229 370.185C621.385 369.201 619.768 367.824 618.483 366.148C617.199 364.472 616.277 362.534 615.779 360.464C615.281 358.393 615.219 356.238 615.597 354.141L660.546 95.6858C661.321 91.3763 663.434 87.44 666.571 84.4657C669.707 81.4914 673.698 79.639 677.946 79.1858L796.449 67.4194C798.701 67.201 800.973 67.5166 803.087 68.342C805.202 69.1673 807.103 70.4803 808.645 72.1795C810.186 73.8787 811.326 75.9186 811.977 78.1418C812.628 80.365 812.772 82.7119 812.399 85.0014L767.581 362.527C766.801 367.42 764.28 371.842 760.506 374.94C756.733 378.037 751.974 379.59 747.15 379.297Z" fill="white"/>
</mask>
<g mask="url(#mask1_820_1982)">
<path d="M866.046 233.231L684.404 236.477C683.296 236.495 682.197 236.261 681.188 235.792C680.178 235.323 679.282 234.63 678.564 233.764C677.846 232.898 677.324 231.88 677.034 230.782C676.745 229.685 676.696 228.535 676.89 227.416L690.204 149.649C690.582 147.503 691.639 145.545 693.212 144.078C694.785 142.611 696.785 141.717 698.903 141.534L878.174 129.227C879.606 129.132 881.042 129.37 882.372 129.923C883.703 130.477 884.894 131.332 885.857 132.424C886.821 133.517 887.531 134.818 887.935 136.232C888.339 137.645 888.427 139.134 888.192 140.588L875.01 225.116C874.765 227.37 873.711 229.448 872.054 230.948C870.397 232.448 868.256 233.262 866.046 233.231Z" fill="#F8AB5D"/>
</g>
<mask id="mask2_820_1982" style="mask-type:luminance" maskUnits="userSpaceOnUse" x="615" y="67" width="198" height="313">
<path d="M747.15 379.297L629.174 371.859C627.099 371.74 625.072 371.17 623.229 370.185C621.385 369.201 619.768 367.824 618.483 366.148C617.199 364.472 616.277 362.534 615.779 360.464C615.281 358.393 615.219 356.238 615.597 354.141L660.546 95.6858C661.321 91.3763 663.434 87.44 666.571 84.4657C669.707 81.4914 673.698 79.639 677.946 79.1858L796.449 67.4194C798.701 67.201 800.973 67.5166 803.087 68.342C805.202 69.1673 807.103 70.4803 808.645 72.1795C810.186 73.8787 811.326 75.9186 811.977 78.1418C812.628 80.365 812.772 82.7119 812.399 85.0014L767.581 362.527C766.801 367.42 764.28 371.842 760.506 374.94C756.733 378.037 751.974 379.59 747.15 379.297Z" fill="white"/>
</mask>
<g mask="url(#mask2_820_1982)">
<path d="M846.011 358.605L664.368 350.49C663.3 350.432 662.255 350.144 661.302 349.644C660.349 349.144 659.51 348.444 658.838 347.589C658.167 346.734 657.678 345.744 657.405 344.682C657.131 343.621 657.078 342.512 657.25 341.428L670.959 261.768C671.352 259.508 672.503 257.461 674.212 255.979C675.921 254.497 678.081 253.674 680.318 253.653L859.852 252.166C861.238 252.162 862.609 252.467 863.869 253.06C865.13 253.653 866.25 254.519 867.152 255.599C868.054 256.679 868.718 257.947 869.096 259.316C869.474 260.685 869.558 262.121 869.343 263.526L855.897 350.49C855.495 352.846 854.269 354.97 852.449 356.464C850.629 357.958 848.34 358.719 846.011 358.605Z" fill="#F8AB5D"/>
</g>
<path d="M657 111L810 98" stroke="#F8AB5D" stroke-width="1.8" stroke-linecap="round" stroke-linejoin="round"/>
<path d="M735.347 92.7651L721.797 93.9871C720.565 94.1229 719.88 93.1724 720.017 91.8147C720.131 91.1717 720.442 90.5792 720.907 90.1176C721.372 89.656 721.97 89.3478 722.618 89.2349L736.168 88.0129C737.4 87.8771 738.221 88.8276 737.947 90.1853C737.813 90.8192 737.495 91.4005 737.033 91.8586C736.572 92.3166 735.986 92.6316 735.347 92.7651Z" fill="#22272E"/>
<path d="M744.042 90.9892C742.669 91.1029 741.754 90.3072 742.059 89.1705C742.186 88.6322 742.532 88.1362 743.051 87.7498C743.569 87.3633 744.235 87.1053 744.958 87.0108C746.331 86.8971 747.246 87.6928 746.941 88.8295C746.865 89.3828 746.534 89.8996 746.007 90.2929C745.479 90.6862 744.785 90.9321 744.042 90.9892Z" fill="#22272E"/>
<path d="M891.141 101.008L840.955 104.98C840.539 105.033 840.116 104.982 839.723 104.831C839.329 104.68 838.976 104.433 838.692 104.112C838.409 103.79 838.203 103.403 838.093 102.982C837.983 102.562 837.97 102.12 838.057 101.693L843.063 70.0582C843.202 69.1197 843.642 68.2576 844.312 67.6114C844.981 66.9652 845.84 66.5728 846.751 66.4976L896.41 61.0197C896.901 60.9642 897.399 61.0264 897.864 61.2016C898.329 61.3768 898.749 61.6603 899.092 62.0304C899.436 62.4005 899.693 62.8474 899.844 63.3369C899.996 63.8264 900.037 64.3454 899.966 64.8542L895.093 97.4475C894.856 98.3864 894.353 99.229 893.647 99.8645C892.942 100.5 892.068 100.899 891.141 101.008Z" stroke="#6DAFA7" stroke-width="1.8" stroke-linecap="round" stroke-linejoin="round"/>
<path d="M844 67.3774L865.757 81.4111C866.341 81.7953 867.025 82 867.723 82C868.422 82 869.106 81.7953 869.689 81.4111L898 62" stroke="#6DAFA7" stroke-width="1.8" stroke-linecap="round" stroke-linejoin="round"/>
<path d="M663.468 159.316L622.862 161.617L616.894 165.68C616.585 165.892 616.222 166.003 615.852 166C615.482 165.997 615.121 165.879 614.816 165.661C614.51 165.444 614.273 165.136 614.135 164.778C613.997 164.42 613.964 164.026 614.04 163.649L620.397 126.818C620.646 125.386 621.34 124.08 622.372 123.101C623.403 122.122 624.716 121.525 626.105 121.402L668.398 118.017C669.043 117.958 669.693 118.053 670.297 118.297C670.901 118.541 671.443 118.927 671.882 119.424C672.32 119.921 672.644 120.516 672.827 121.165C673.01 121.813 673.049 122.496 672.939 123.163L667.49 155.389C667.348 156.423 666.872 157.377 666.141 158.091C665.41 158.805 664.467 159.237 663.468 159.316Z" fill="#6DAFA7"/>
<path d="M629 132L663 129" stroke="#22272E" stroke-width="1.8" stroke-linecap="round" stroke-linejoin="round"/>
<path d="M627 141L662 139" stroke="#22272E" stroke-width="1.8" stroke-linecap="round" stroke-linejoin="round"/>
<path d="M625 150L644 149" stroke="#22272E" stroke-width="1.8" stroke-linecap="round" stroke-linejoin="round"/>
<path d="M856.678 224.761L674.647 227.999C673.536 228.017 672.436 227.783 671.424 227.315C670.412 226.848 669.514 226.157 668.795 225.293C668.075 224.429 667.551 223.414 667.261 222.319C666.971 221.224 666.922 220.077 667.117 218.961L680.459 141.391C680.838 139.25 681.898 137.297 683.474 135.834C685.05 134.37 687.055 133.479 689.177 133.297L868.831 121.02C870.267 120.925 871.705 121.163 873.039 121.715C874.372 122.267 875.566 123.12 876.531 124.21C877.497 125.299 878.209 126.598 878.614 128.008C879.019 129.418 879.107 130.903 878.871 132.352L865.661 216.667C865.395 218.906 864.334 220.968 862.678 222.46C861.022 223.952 858.887 224.771 856.678 224.761Z" fill="#22272E"/>
<path d="M721.84 166.007C720.916 171.779 716.167 176.706 711.285 176.987C706.403 177.269 703.236 172.764 704.16 166.993C705.084 161.221 709.833 156.294 714.715 156.013C719.597 155.731 722.764 160.236 721.84 166.007Z" fill="#FFE779"/>
<path d="M718.6 201.34L696.843 201.996C696.15 202.024 695.459 201.898 694.821 201.627C694.184 201.357 693.615 200.949 693.157 200.433C692.7 199.917 692.364 199.307 692.175 198.647C691.987 197.986 691.95 197.293 692.067 196.616L692.465 194.254C694.19 184.544 702.68 176.277 711.569 176.014C720.458 175.621 726.428 183.363 724.703 193.204L724.172 196.616C723.912 197.907 723.222 199.074 722.212 199.93C721.201 200.787 719.93 201.283 718.6 201.34Z" fill="#FFE779"/>
<path d="M836.931 167.074L750.952 170.993C750.528 171.023 750.103 170.956 749.71 170.797C749.317 170.637 748.967 170.39 748.686 170.073C748.405 169.757 748.203 169.381 748.093 168.974C747.984 168.567 747.971 168.14 748.055 167.727L748.977 161.98C749.147 161.04 749.627 160.183 750.343 159.545C751.058 158.906 751.967 158.522 752.927 158.453L839.038 154.011C839.464 153.972 839.893 154.034 840.29 154.19C840.687 154.347 841.041 154.595 841.324 154.913C841.606 155.232 841.809 155.612 841.915 156.022C842.021 156.433 842.028 156.863 841.935 157.277L840.882 163.547C840.753 164.505 840.285 165.386 839.562 166.033C838.838 166.679 837.905 167.048 836.931 167.074Z" fill="#6DAFA7"/>
<path d="M749.389 187L750.758 191.34L755 192.04L751.305 195.82L751.032 200.72L747.474 198.76L743.095 201L744.463 196.1L742 192.6L746.516 191.48L749.389 187Z" fill="#FFE779"/>
<path d="M770.312 186L771.802 190.34L776 191.04L772.344 194.82L772.208 199.72L768.417 197.76L764.083 200L765.437 195.1L763 191.46L767.469 190.48L770.312 186Z" fill="#FFE779"/>
<path d="M789.354 186L790.798 189.951L795 190.716L791.323 194.157L791.192 198.745L787.515 196.833L783.182 199L784.495 194.412L782 191.098L786.596 190.078L789.354 186Z" fill="#FFE779"/>
<path d="M810.901 185L812.426 189.35L817 190.029L813.119 193.835L812.98 198.728L808.96 196.689L804.247 199L805.772 193.971L803 190.573L807.851 189.485L810.901 185Z" fill="#FFE779"/>
<path d="M831.883 184L833.379 188.308L838 189.115L834.058 192.75L833.922 197.731L829.845 195.712L825.223 198L826.718 193.019L824 189.519L828.757 188.442L831.883 184Z" fill="#FFE779"/>
<path d="M835.454 349.989L654.206 341.784C653.139 341.727 652.096 341.44 651.145 340.943C650.193 340.446 649.355 339.75 648.684 338.899C648.014 338.049 647.526 337.064 647.253 336.009C646.98 334.953 646.927 333.85 647.099 332.773L660.788 253.55C661.18 251.302 662.329 249.266 664.036 247.792C665.742 246.318 667.899 245.5 670.133 245.48L849.407 244C850.791 243.996 852.16 244.3 853.418 244.889C854.677 245.479 855.795 246.341 856.696 247.415C857.597 248.489 858.259 249.75 858.637 251.111C859.015 252.472 859.099 253.901 858.884 255.298L845.458 341.784C845.056 344.163 843.818 346.31 841.975 347.821C840.133 349.332 837.814 350.103 835.454 349.989Z" fill="#22272E"/>
<path d="M701.821 281.13C700.957 286.656 696.512 291.129 691.821 290.997C687.13 290.866 684.29 286.393 685.154 280.867C686.018 275.341 690.463 271 695.031 271C699.599 271 702.808 275.605 701.821 281.13Z" fill="#FFE779"/>
<path d="M699.094 317.998L676.691 317.305C676.007 317.271 675.338 317.093 674.726 316.782C674.114 316.472 673.572 316.036 673.135 315.501C672.699 314.967 672.376 314.346 672.189 313.678C672.001 313.01 671.953 312.31 672.046 311.622L672.593 308.712C674.369 298.179 683.111 289.863 692.264 290.002C701.416 290.14 707.563 298.872 705.651 309.543L705.104 313.008C704.862 314.434 704.12 315.724 703.016 316.64C701.912 317.557 700.52 318.039 699.094 317.998Z" fill="#FFE779"/>
<path d="M817.578 290L731.794 288.738C731.387 288.732 730.987 288.632 730.619 288.445C730.252 288.259 729.926 287.991 729.665 287.658C729.403 287.326 729.212 286.937 729.103 286.519C728.994 286.101 728.971 285.662 729.035 285.234L730.086 278.785C730.249 277.723 730.762 276.758 731.533 276.064C732.304 275.37 733.282 274.993 734.29 275L820.206 275.701C820.613 275.708 821.013 275.808 821.381 275.994C821.748 276.18 822.074 276.449 822.335 276.781C822.597 277.113 822.788 277.502 822.897 277.92C823.006 278.339 823.029 278.777 822.965 279.206L821.914 286.215C821.697 287.275 821.151 288.226 820.364 288.914C819.577 289.601 818.595 289.984 817.578 290Z" fill="#6DAFA7"/>
<path d="M729.766 305L731.043 309.119L735 310.02L731.553 313.366L731.426 318L727.979 315.812L723.894 317.743L725.17 313.109L723 309.762L727.085 308.99L729.766 305Z" fill="#FFE779"/>
<path d="M750.371 305L751.711 309.392L756 310.49L752.247 314.059L752.113 319L748.361 316.804L744.072 318.863L745.412 313.922L743 310.078L747.557 309.392L750.371 305Z" fill="#FFE779"/>
<path d="M770.354 305L771.667 309.66L776 310.825L772.323 314.612L772.061 320L768.384 317.524L764.05 319.709L765.495 314.466L763 310.388L767.465 309.66L770.354 305Z" fill="#FFE779"/>
<path d="M791.337 306L792.752 310.4L797 311.467L793.267 315.067L793.139 320L789.406 317.733L785.03 319.733L786.446 314.8L784 311.067L788.505 310.267L791.337 306Z" fill="#63737A"/>
<path d="M811.883 306L813.515 310.67L818 311.802L814.058 315.623L813.922 321L809.981 318.453L805.223 320.717L806.718 315.34L804 311.519L808.893 310.67L811.883 306Z" fill="#63737A"/>
<path d="M832.686 38.6216C832.02 37.8955 831.155 37.3821 830.199 37.1459C829.243 36.9097 828.238 36.9612 827.311 37.294C826.384 37.6268 825.575 38.2261 824.988 39.0166C824.4 39.807 824.059 40.7535 824.007 41.7372C823.955 42.7209 824.195 43.698 824.697 44.5458C825.198 45.3936 825.939 46.0744 826.826 46.5026C827.713 46.9309 828.707 47.0877 829.683 46.9532C830.659 46.8187 831.573 46.3989 832.311 45.7466C832.809 45.3068 833.214 44.7721 833.503 44.174C833.791 43.5758 833.958 42.9261 833.993 42.2628C834.028 41.5995 833.93 40.9358 833.706 40.3107C833.482 39.6855 833.135 39.1113 832.686 38.6216Z" fill="#22272E"/>
<path d="M825.525 25.9034L824.603 24.8202C823.862 23.9797 822.966 23.2984 821.967 22.8158C820.968 22.3332 819.886 22.0588 818.784 22.0085C817.681 21.9581 816.579 22.1328 815.543 22.5224C814.506 22.9121 813.555 23.509 812.744 24.2786C811.926 25.0402 811.264 25.9608 810.794 26.9873C810.324 28.0137 810.057 29.1256 810.008 30.2587C809.959 31.3918 810.129 32.5237 810.508 33.5889C810.888 34.6541 811.468 35.6315 812.217 36.4647L813.14 37.5479C814.214 38.7864 814.982 40.2726 815.38 41.8807C815.643 43.0993 816.038 44.5888 816.434 45.9428C816.601 46.618 816.935 47.2376 817.404 47.7418C817.872 48.2461 818.458 48.6181 819.107 48.8221C819.755 49.0261 820.444 49.0552 821.106 48.9066C821.769 48.7581 822.383 48.4368 822.89 47.9738L828.819 42.4224L834.749 36.8709C835.24 36.3984 835.606 35.8049 835.811 35.1466C836.017 34.4883 836.055 33.787 835.923 33.1091C835.791 32.4312 835.493 31.7991 835.057 31.2727C834.621 30.7462 834.061 30.3429 833.431 30.1008C832.114 29.5592 830.796 29.153 829.61 28.7468C828.104 28.0392 826.723 27.0782 825.525 25.9034Z" fill="#6DAFA7"/>
<path d="M331.161 214.69L173.185 241.865C171.831 242.089 170.447 242.034 169.114 241.703C167.78 241.372 166.524 240.772 165.418 239.938C164.312 239.103 163.379 238.051 162.671 236.843C161.964 235.634 161.496 234.293 161.297 232.897L141.087 84.2496C140.899 82.8899 141.016 81.5038 141.43 80.1979C141.844 78.8921 142.543 77.7012 143.474 76.717C144.406 75.7327 145.544 74.9813 146.802 74.5205C148.06 74.0597 149.403 73.9018 150.73 74.059L306.857 93.0815C309.044 93.3428 311.093 94.3132 312.708 95.8522C314.322 97.3912 315.419 99.4188 315.839 101.642L335.916 207.76C336.177 209.328 335.823 210.937 334.931 212.236C334.04 213.535 332.684 214.418 331.161 214.69Z" fill="#F8AB5D"/>
<path d="M337.283 212.015L180.145 238.867C178.798 239.088 177.422 239.033 176.096 238.706C174.769 238.379 173.52 237.787 172.42 236.962C171.32 236.138 170.391 235.098 169.687 233.904C168.984 232.71 168.519 231.385 168.32 230.006L148.087 83.1276C147.899 81.7841 148.016 80.4145 148.428 79.1242C148.839 77.8338 149.535 76.6572 150.461 75.6846C151.388 74.7121 152.52 73.9696 153.771 73.5143C155.022 73.059 156.359 72.903 157.678 73.0583L312.976 91.8544C315.151 92.1126 317.189 93.0714 318.795 94.592C320.402 96.1127 321.493 98.1162 321.91 100.313L341.881 205.168C342.036 205.928 342.04 206.712 341.891 207.473C341.741 208.233 341.443 208.956 341.013 209.595C340.583 210.235 340.031 210.78 339.39 211.195C338.749 211.611 338.032 211.89 337.283 212.015Z" fill="#FFE779"/>
<path d="M237.219 205.36L197.601 209.951C196.195 210.143 194.77 209.768 193.638 208.908C192.505 208.048 191.757 206.773 191.558 205.36L177.053 107.883C176.951 107.244 176.996 106.591 177.185 105.973C177.374 105.356 177.702 104.79 178.144 104.32C178.585 103.85 179.128 103.489 179.731 103.264C180.334 103.039 180.98 102.956 181.62 103.022L221.238 105.992C222.463 106.071 223.624 106.57 224.529 107.405C225.433 108.241 226.025 109.362 226.207 110.583L240.979 200.5C241.089 201.64 240.76 202.778 240.061 203.682C239.362 204.586 238.345 205.186 237.219 205.36Z" fill="#22272E"/>
<path d="M239.328 203.36L200.954 207.951C199.592 208.143 198.212 207.768 197.115 206.908C196.018 206.048 195.294 204.773 195.1 203.36L181.052 105.883C180.953 105.244 180.996 104.591 181.179 103.973C181.363 103.356 181.68 102.79 182.108 102.32C182.536 101.85 183.062 101.489 183.645 101.264C184.229 101.039 184.855 100.956 185.474 101.022L223.848 103.992C225.035 104.071 226.16 104.57 227.036 105.405C227.911 106.241 228.485 107.362 228.661 108.583L242.97 198.5C243.103 199.645 242.794 200.798 242.112 201.708C241.43 202.618 240.429 203.212 239.328 203.36Z" fill="#6DAFA7"/>
<path d="M201 109H207" stroke="#22272E" stroke-width="1.8" stroke-linecap="round" stroke-linejoin="round"/>
<path d="M182 113L230 116" stroke="#22272E" stroke-width="1.8" stroke-linecap="round" stroke-linejoin="round"/>
<path d="M193 195L242 191" stroke="#22272E" stroke-width="1.8" stroke-linecap="round" stroke-linejoin="round"/>
<path d="M291.866 120.28C292.49 124.118 290.868 127.133 288.248 126.996C285.627 126.858 282.757 123.569 282.133 119.732C281.509 115.895 283.131 112.743 285.877 113.017C288.622 113.291 291.118 116.443 291.866 120.28Z" fill="#22272E"/>
<path d="M296.583 144.998H285.526C284.582 145.006 283.668 144.63 282.947 143.938C282.226 143.247 281.746 142.285 281.594 141.227L281.226 138.992C280.12 131.59 283.191 125.863 287.983 126.003C292.774 126.142 297.443 132.009 298.549 139.132L298.917 141.646C299.014 142.048 299.026 142.469 298.953 142.877C298.88 143.285 298.723 143.667 298.496 143.993C298.269 144.32 297.977 144.581 297.645 144.755C297.313 144.93 296.949 145.013 296.583 144.998Z" fill="#22272E"/>
<path d="M282.871 167.222C283.51 171.307 281.72 174.712 278.779 174.984C275.837 175.256 272.768 171.988 272.129 167.767C271.49 163.545 273.28 160.14 276.349 160.004C279.418 159.868 282.103 163.136 282.871 167.222Z" fill="#22272E"/>
<path d="M288.124 191.645L275.471 192.975C274.365 193.093 273.256 192.789 272.366 192.122C271.476 191.455 270.873 190.477 270.677 189.383L270.277 187.255C268.945 179.805 272.541 173.419 278.268 173.02C283.729 172.621 289.189 178.208 290.521 185.392L290.92 187.787C291.021 188.226 291.026 188.682 290.936 189.124C290.846 189.566 290.662 189.984 290.398 190.349C290.133 190.714 289.793 191.019 289.401 191.242C289.009 191.466 288.573 191.603 288.124 191.645Z" fill="#22272E"/>
<path d="M314.855 164.72C315.46 168.557 314.128 171.709 311.707 171.983C309.285 172.257 306.743 169.105 306.137 165.268C305.532 161.431 306.985 158.141 309.406 158.004C311.828 157.867 314.249 161.019 314.855 164.72Z" fill="#22272E"/>
<path d="M320.048 188.884L310.224 189.976C309.137 190.094 308.048 189.777 307.182 189.091C306.317 188.405 305.742 187.402 305.577 186.292L305.312 184.518C303.984 177.423 307.038 171.419 311.817 171.01C316.597 170.737 321.376 176.058 322.571 182.881L322.969 184.927C323.09 185.85 322.851 186.784 322.304 187.525C321.756 188.267 320.945 188.755 320.048 188.884Z" fill="#22272E"/>
<path d="M246 148L259 147" stroke="#22272E" stroke-width="1.8" stroke-linecap="round" stroke-linejoin="round"/>
<path d="M258.502 153.744L265.413 149.006C265.603 148.888 265.758 148.718 265.861 148.513C265.964 148.309 266.011 148.079 265.998 147.848C265.984 147.618 265.91 147.395 265.783 147.206C265.656 147.017 265.483 146.868 265.28 146.776L256.775 142.177C256.573 142.049 256.339 141.988 256.104 142.002C255.869 142.016 255.643 142.104 255.456 142.254C255.27 142.405 255.131 142.611 255.058 142.846C254.985 143.081 254.981 143.334 255.047 143.571L256.642 152.908C256.662 153.124 256.738 153.33 256.86 153.505C256.982 153.679 257.147 153.817 257.337 153.902C257.527 153.987 257.735 154.018 257.94 153.99C258.145 153.962 258.339 153.877 258.502 153.744Z" fill="#22272E"/>
<path d="M561 610.333C561 610.333 562.891 628.774 564.511 638.331C564.916 641.158 575.584 644.388 585.307 642.369C597.325 639.947 598 633.082 598 633.082C598 633.082 595.704 600.777 595.434 598.488C595.164 596.2 562.755 602.257 561 610.333Z" fill="#B28D93"/>
<path d="M594.304 622.156C585.215 627.13 573.359 627.272 566.377 626.846C564.828 626.757 563.357 626.082 562.224 624.937C561.092 623.793 560.37 622.255 560.186 620.593C559.527 614.339 559 609.507 559 609.507C560.844 599.985 596.281 592.878 596.544 595.579C596.676 596.858 597.334 606.096 597.993 615.334C598.052 616.733 597.736 618.122 597.081 619.332C596.427 620.542 595.463 621.523 594.304 622.156Z" fill="#22272E"/>
<path d="M564.141 636.477C564.141 636.477 562.413 638.766 563.21 644.017C564.008 649.268 563.077 672.831 566.002 675.658C568.926 678.486 601.888 676.466 616.642 673.1C632.458 669.465 642.427 663.137 643.49 659.771C645.085 654.923 643.756 654.25 627.408 649.403C611.059 644.556 602.819 637.689 599.363 633.784C598.676 632.971 597.834 632.306 596.888 631.83C595.941 631.354 594.91 631.077 593.855 631.014C592.801 630.951 591.744 631.104 590.749 631.465C589.754 631.825 588.841 632.385 588.065 633.111C586.071 634.861 583.679 641.19 579.293 641.19C568.793 641.055 565.204 635.939 564.141 636.477Z" fill="#22272E"/>
<path d="M621 646C621 646 608.849 647.077 600 660" stroke="white" stroke-width="1.8" stroke-linecap="round" stroke-linejoin="round"/>
<path d="M611 642C607.132 642.629 603.444 644.021 600.173 646.087C596.901 648.153 594.117 650.848 592 654" stroke="white" stroke-width="1.8" stroke-linecap="round" stroke-linejoin="round"/>
<path d="M450.164 610.358C450.164 610.358 448.289 636.272 448.021 637.48C447.753 638.689 449.896 645 462.619 646.745C475.342 648.491 479.628 640.703 479.628 640.703C479.628 640.703 484.181 616.937 484.985 612.64C485.788 608.344 454.316 605.927 450.164 610.358Z" fill="#B28D93"/>
<path d="M486.982 612.339C486.59 614.069 485.675 618.86 484.76 624.182C484.512 625.604 483.817 626.905 482.779 627.889C481.742 628.873 480.418 629.487 479.007 629.638C469.973 630.671 460.827 629.485 452.336 626.178C450.976 625.658 449.82 624.701 449.042 623.453C448.264 622.204 447.906 620.732 448.021 619.259C448.414 613.936 448.675 609.545 448.675 609.545C453.12 604.621 487.897 607.549 486.982 612.339Z" fill="#22272E"/>
<path d="M448.7 637C448.7 637 445.514 637.799 445.248 643.255C444.982 648.712 438.743 673.6 439.008 676.262C439.274 678.924 440.734 682.251 460.781 681.985C480.828 681.719 491.98 682.784 495.697 679.589C499.414 676.395 494.37 669.075 490.652 662.421C486.935 655.766 481.359 645.784 480.43 640.327C479.077 641.275 477.604 642.036 476.049 642.59C474.854 642.723 473.659 637 466.224 637C457.595 637 454.541 641.791 453.745 641.658C451.543 640.789 449.745 639.128 448.7 637Z" fill="#22272E"/>
<path d="M454 653C454 653 468.863 648.5 482 653" stroke="white" stroke-width="1.8" stroke-linecap="round" stroke-linejoin="round"/>
<path d="M453 660C453 660 470.514 655.5 485 660" stroke="white" stroke-width="1.8" stroke-linecap="round" stroke-linejoin="round"/>
<path d="M484.486 367.062C484.486 367.062 512.35 374.937 545.736 387.158C577.281 398.699 589.636 405.489 593.053 428.164C596.47 450.84 592.264 531.632 596.47 552.95C600.676 574.268 605.54 589.34 601.465 600.338C600.775 602.47 599.674 604.436 598.228 606.116C596.783 607.797 595.022 609.157 593.053 610.114C593.053 610.114 576.098 617.583 560.982 614.052C558.107 613.128 555.439 611.618 553.137 609.613C550.834 607.607 548.944 605.146 547.576 602.375C542.581 592.734 547.444 561.64 543.633 538.421C539.821 515.202 535.615 476.911 531.014 451.248C526.414 425.585 451.495 415.265 441.9 395.033C432.305 374.802 437.299 357.014 437.299 357.014C437.299 357.014 476.074 356.199 484.486 367.062Z" fill="#22272E"/>
<path d="M464 393C464 389.982 464 386.973 464 384" stroke="#63737A" stroke-width="1.8" stroke-linecap="round" stroke-linejoin="round"/>
<path d="M594 443.32C592.427 443.755 590.81 443.983 589.185 444C578.034 444 568.531 433.942 568.024 421.709C567.844 417.77 568.669 413.853 570.41 410.38C572.152 406.906 574.744 404.009 577.908 402C586.651 408.252 591.086 416 592.86 428.505C593.366 432.039 593.747 437.204 594 443.32Z" stroke="#63737A" stroke-width="1.8" stroke-linecap="round" stroke-linejoin="round"/>
<path d="M354.511 370.36C354.511 370.36 353.455 380.361 354.379 403.202C355.304 425.502 371.948 454.695 407.614 455.101C443.28 455.506 464.284 455.101 464.284 455.101C464.284 455.101 461.51 468.076 460.189 501.188C458.868 534.301 449.093 557.006 442.752 577.685C437.204 595.795 437.204 608.5 450.017 614.582C461.717 618.76 474.103 620.551 486.476 619.853C486.476 619.853 496.251 619.042 499.157 595.12C502.064 571.198 514.481 524.975 524.652 495.241C534.823 465.508 542.881 427.394 527.162 414.42C511.442 401.445 457.943 393.606 455.169 392.255C452.395 390.903 452.791 372.657 449.489 361.44C446.319 349.952 365.211 347.789 354.511 370.36Z" fill="#22272E"/>
<path d="M524.628 495C534.821 465.11 542.896 426.486 527.143 413.383C511.391 400.281 457.78 392.365 455 391" stroke="#63737A" stroke-width="1.8" stroke-linecap="round" stroke-linejoin="round"/>
<path d="M455 391C455 391 441.466 389.619 436 390.103" stroke="#63737A" stroke-width="1.8" stroke-linecap="round" stroke-linejoin="round"/>
<path d="M356 417C361 415.007 368.429 410.091 373 398" stroke="#63737A" stroke-width="1.8" stroke-linecap="round" stroke-linejoin="round"/>
<path d="M463 454C464.562 449.919 466.942 446.18 470 443" stroke="#63737A" stroke-width="1.8" stroke-linecap="round" stroke-linejoin="round"/>
<path d="M535.825 445.201C534.149 448.731 531.538 451.708 528.288 453.794C525.039 455.88 521.282 456.991 517.446 457C505.641 457 495.579 446.848 495.043 434.5C494.861 431.613 495.261 428.718 496.217 425.995C497.173 423.272 498.666 420.779 500.603 418.67C502.539 416.56 504.879 414.88 507.476 413.733C510.073 412.586 512.873 411.996 515.702 412C518.634 412.011 521.534 412.624 524.23 413.802C526.926 414.981 529.363 416.7 531.398 418.86C535.288 425.308 536.495 434.637 535.825 445.201Z" stroke="#63737A" stroke-width="1.8" stroke-linecap="round" stroke-linejoin="round"/>
<path d="M455 627C455 625.351 455 623.649 455 622" stroke="#63737A" stroke-width="1.8" stroke-linecap="round" stroke-linejoin="round"/>
<path d="M467 629C467.515 627.419 467.853 625.731 468 624" stroke="#63737A" stroke-width="1.8" stroke-linecap="round" stroke-linejoin="round"/>
<path d="M478 629C478.881 627.763 479.555 626.415 480 625" stroke="#63737A" stroke-width="1.8" stroke-linecap="round" stroke-linejoin="round"/>
<path d="M568 627C567.528 625.079 567.192 623.064 567 621" stroke="#63737A" stroke-width="1.8" stroke-linecap="round" stroke-linejoin="round"/>
<path d="M583 625C583 623.327 583 621.633 583 620" stroke="#63737A" stroke-width="1.8" stroke-linecap="round" stroke-linejoin="round"/>
<path d="M595.334 621C596.323 619.016 596.209 616.963 595 615" stroke="#63737A" stroke-width="1.8" stroke-linecap="round" stroke-linejoin="round"/>
<path d="M456.902 212.432C456.902 212.432 469.979 214.74 490.85 219.762C503.76 222.747 516.81 225.058 529.949 226.684C529.949 226.684 551.479 216.776 576.973 205.51C591.604 198.905 606.549 193.061 621.751 188C621.751 188 628.356 188.543 632.187 198.452C633.661 202.24 634.249 206.331 633.904 210.396C633.818 211.438 633.5 212.446 632.973 213.341C632.446 214.236 631.725 214.993 630.866 215.554C625.054 219.49 609.071 230.485 583.974 248.266C552.008 270.934 538.666 272.563 522.816 271.884C505.248 271.07 461.658 263.74 461.658 263.74C461.658 263.74 449.902 261.433 445.807 239.851C441.976 218.269 452.808 211.618 456.902 212.432Z" fill="#FFE779"/>
<path d="M530.76 272C530.76 272 525.853 270.589 529.124 264.943C532.395 259.297 545.228 254.806 553.153 258.142C559.821 260.965 555.795 265.713 555.795 265.713" stroke="#F8AB5D" stroke-width="1.8" stroke-linecap="round" stroke-linejoin="round"/>
<path d="M614.213 191C613.582 196.1 614.36 201.287 616.447 205.91C620.544 214.642 625.51 217.463 627 218" stroke="#F8AB5D" stroke-width="1.8" stroke-linecap="round" stroke-linejoin="round"/>
<path d="M622.159 188.898C622.159 188.898 621.115 197.233 624.378 204.201C625.588 207.031 627.318 209.584 629.469 211.716C630.109 212.331 630.9 212.746 631.753 212.915C632.607 213.084 633.488 213 634.298 212.672C635.828 211.923 637.456 211.416 639.128 211.169C642 210.896 649.832 212.672 654.4 209.257C658.969 205.841 660.013 205.431 660.666 205.294C661.319 205.157 668.237 205.157 669.412 204.611C671.761 203.518 672.283 199.419 671.108 197.779C670.064 196.413 663.277 196.276 661.971 194.227C660.666 192.177 661.841 189.991 669.15 188.078C676.46 186.165 689.383 181.929 688.991 178.65C688.6 175.371 681.681 177.83 672.805 178.787C663.929 179.743 659.752 180.016 656.097 178.513C652.442 177.01 647.482 177.147 641.869 180.016C638.214 181.929 634.298 183.569 627.38 186.712C625.706 187.603 623.959 188.334 622.159 188.898Z" fill="#B28D93"/>
<path d="M670.638 186.778C671.408 188.991 671.866 191.303 671.997 193.645C672.133 196.666 667.784 204.905 664.659 206.416C661.533 207.926 659.495 206.278 658.136 204.081C656.777 201.884 653.243 188.838 660.038 187.328C666.833 185.817 669.279 185.542 670.638 186.778Z" fill="#B28D93"/>
<path d="M671.428 198C670.403 196.571 663.736 196.429 662.455 194.286C661.173 192.143 662.326 189.857 669.505 187.857C676.684 185.857 689.376 181.429 688.991 178" stroke="#896068" stroke-width="1.8" stroke-linecap="round" stroke-linejoin="round"/>
<path d="M660 179.053C657.313 178.864 654.619 179.183 652 180" stroke="#896068" stroke-width="1.8" stroke-linecap="round" stroke-linejoin="round"/>
<path d="M654 208C658.565 204.176 659.609 203.882 660.261 203.735C660.913 203.588 667.826 203.588 669 203" stroke="#896068" stroke-width="1.8" stroke-linecap="round" stroke-linejoin="round"/>
<path d="M409 198.12C409 198.12 410.429 192.488 420.171 193.038C429.913 193.587 444.072 198.944 444.981 206.637C445.89 214.329 413.546 218.588 409 198.12Z" fill="#22272E"/>
<path d="M478.86 259.624C477.553 216.662 457.162 212.448 457.162 212.448C440.418 209.879 423.5 208.743 406.577 209.049C378.866 209.593 357.168 214.487 345.927 231.073C335.993 245.756 314.295 310.878 319.915 328.96C324.621 344.187 338.476 347.858 363.311 343.371C361.743 352.888 359.913 360.365 359.913 360.365C370.37 368.251 393.506 376 428.144 376C458.992 376 474.547 365.532 474.547 365.532C473.37 355.879 480.037 302.585 478.86 259.624Z" fill="#FFE779"/>
<path d="M445.668 222.769C447.137 231.864 447.805 251.682 450.21 270.414C452.615 289.146 453.016 316.701 453.149 343.034C453.215 358.806 454.781 374.534 457.825 390C475.86 383.892 488.684 369.503 488.684 369.503C488.684 369.503 490.421 367.332 485.745 349.821C481.07 332.311 479.867 270.414 479.867 270.414C480.58 260.115 480.041 249.766 478.264 239.601C475.325 224.805 465.44 214.353 457.825 211.91C453.684 210.554 449.349 209.912 445 210.01C445 210.01 445.267 216.932 445.668 222.769Z" fill="#6DAFA7"/>
<path d="M410.784 183.941C410.784 183.941 410 199.407 410 207.004C410 220.298 427.503 234 434.034 234C444.614 234 446.443 221.112 445.92 215.415C445.398 209.717 445.267 193.166 445.398 192.759C445.528 192.352 417.315 176.616 410.784 183.941Z" fill="#B28D93"/>
<path d="M417 191C418.968 207.741 431.955 216.517 445.992 215.976C446.019 215.433 445.975 214.888 445.861 214.356C445.599 212.061 445.467 208.011 445.467 204.096C435.366 209.496 422.903 200.721 417 191Z" fill="#896068"/>
<path d="M426.155 229.984C425.238 246.094 431 286.166 431 331.653C431 377.14 424.583 395.822 424.583 395.822C370.5 402.456 343 378.9 343 378.9C343 378.9 345.095 374.162 349.679 361.03C354.262 347.898 354.262 331.788 354.262 331.788C354.262 331.788 360.548 272.357 358.321 259.09C356.095 245.823 347.845 228.224 347.845 228.224C347.845 228.224 354.393 218.341 371.94 213.332C385.56 209.406 400.357 209 406.25 209L406.119 209.677C412.143 223.621 426.155 229.984 426.155 229.984Z" fill="#6DAFA7"/>
<path d="M379.278 351.146C388.007 353.976 397.069 355.228 406.137 354.857C407.823 354.708 409.121 355.896 408.991 357.38V357.528C408.835 358.188 408.499 358.773 408.032 359.2C407.566 359.627 406.993 359.873 406.396 359.903C400.557 360.348 385.506 359.309 377.721 355.747C377.156 355.551 376.674 355.126 376.363 354.553C376.053 353.979 375.936 353.296 376.034 352.63C376.293 351.295 377.85 350.701 379.278 351.146Z" fill="#EAF9F3"/>
<path d="M465.164 351.024C467.869 350.403 473.954 349.16 480.58 347.048C481.526 346.799 482.608 347.545 482.878 348.787V348.911C483.036 349.295 483.041 349.717 482.892 350.104C482.744 350.49 482.451 350.816 482.067 351.024C478.957 352.142 471.114 354.751 466.111 355C465.636 354.948 465.188 354.766 464.827 354.478C464.465 354.19 464.206 353.809 464.082 353.385C463.812 352.266 464.217 351.272 465.164 351.024Z" fill="#EAF9F3"/>
<path d="M467.337 284.217H466.632C455.912 289.365 449.705 289.114 449 284.342C450.128 283.715 451.116 283.087 452.103 282.459C454.455 281.109 457.097 280.211 459.861 279.822C461.916 279.515 463.988 279.305 466.068 279.194C466.068 279.194 469.171 278.566 469.735 279.571C470.299 280.324 470.158 282.208 467.337 284.217Z" fill="#B28D93"/>
<path d="M533.96 332L458.98 331.862C458.425 331.865 457.875 331.746 457.367 331.512C456.859 331.279 456.403 330.936 456.03 330.506C455.656 330.077 455.374 329.57 455.2 329.019C455.026 328.467 454.964 327.884 455.02 327.307L460.696 266.568C460.817 265.257 461.423 264.046 462.384 263.195C463.346 262.344 464.588 261.92 465.844 262.012L541.088 267.258C541.924 267.342 542.695 267.765 543.238 268.435C543.78 269.106 544.051 269.971 543.992 270.847L537.92 328.273C537.821 329.298 537.361 330.248 536.629 330.937C535.896 331.626 534.945 332.005 533.96 332Z" fill="#22272E"/>
<path d="M507.975 274.5C508.012 274.316 508.008 274.127 507.963 273.945C507.918 273.763 507.833 273.594 507.715 273.45C507.597 273.306 507.449 273.19 507.281 273.113C507.113 273.035 506.93 272.996 506.746 273C506.336 273.02 505.944 273.178 505.632 273.45C505.32 273.721 505.107 274.091 505.025 274.5C504.988 274.684 504.992 274.873 505.037 275.055C505.082 275.237 505.167 275.406 505.285 275.55C505.403 275.694 505.551 275.81 505.719 275.887C505.887 275.965 506.07 276.004 506.254 276C506.658 275.961 507.04 275.796 507.349 275.527C507.657 275.259 507.875 274.9 507.975 274.5Z" fill="#63737A"/>
<path d="M439.685 315.977C439.547 316.561 439.27 317.101 438.879 317.548C438.487 317.995 437.992 318.336 437.44 318.541C417.998 327.021 397.899 333.835 377.352 338.913C371.806 340.262 366.523 341.476 361.769 342.286C336.545 346.603 322.679 343.095 317.925 327.985C312.246 310.041 334.168 245.551 344.205 230.845C345.012 229.663 345.894 228.536 346.846 227.472C360.713 216.409 375.107 227.202 378.277 245.281C379.861 254.86 375.9 265.384 372.598 277.391C370.221 286.026 364.146 299.922 364.146 299.922L433.346 292.637C433.964 292.538 434.597 292.612 435.178 292.849C435.759 293.086 436.266 293.479 436.648 293.986C442.986 301.136 440.874 311.795 439.685 315.977Z" fill="#FFE779"/>
<path d="M365 301C365 301 351.255 302.263 346 305" stroke="#F8AB5D" stroke-width="1.8" stroke-linecap="round" stroke-linejoin="round"/>
<path d="M424.568 295C424.568 295 420.892 299.329 422.336 308.391C423.911 318.266 428.112 320.971 431 323" stroke="#F8AB5D" stroke-width="1.8" stroke-linecap="round" stroke-linejoin="round"/>
<path d="M319.057 329.205C319.057 329.205 317.654 321.135 328.755 321.001C339.856 320.866 352.361 337.006 344.577 344" stroke="#F8AB5D" stroke-width="1.8" stroke-linecap="round" stroke-linejoin="round"/>
<path d="M492.913 304.52C492.121 307.11 486.054 304.656 481.438 303.293C475.503 301.521 471.546 300.158 471.15 300.022C474.989 302.159 478.651 304.621 482.097 307.383C486.846 311.063 490.407 315.016 488.824 316.925C487.241 318.833 477.745 313.108 477.745 313.108C477.745 313.108 481.174 315.561 481.965 318.424C482.757 321.287 478.14 320.332 469.435 314.88C469.435 314.88 466.138 315.016 459.939 317.879C453.74 320.741 444.507 319.378 441.605 318.424C440.449 318.071 439.25 317.888 438.044 317.879C437.38 317.872 436.726 317.708 436.132 317.401C435.538 317.094 435.019 316.652 434.615 316.107C432.157 313.032 430.601 309.296 430.13 305.338C429.603 300.294 430.79 297.432 431.713 296.069C432.138 295.359 432.792 294.828 433.559 294.569C435.147 294.012 436.691 293.329 438.176 292.524C439.363 291.843 443.715 288.571 448.068 285.572C448.705 285.151 449.322 284.696 449.915 284.209C455.408 284.501 460.913 284.455 466.402 284.073H467.061C472.733 283.664 487.901 285.027 489.484 286.799C491.066 288.571 488.824 290.889 481.702 290.752C477.863 290.743 474.028 291.016 470.227 291.57C474.159 292.589 477.998 293.957 481.702 295.66C487.241 298.25 493.836 301.93 492.913 304.52Z" fill="#B28D93"/>
<path d="M471 299C471 299 468.76 298.5 467.08 298.25C466.072 298.1 465.039 298.016 464 298" stroke="#896068" stroke-width="1.8" stroke-linecap="round" stroke-linejoin="round"/>
<path d="M478 313C478 313 473.333 307.826 467.96 306.609C465.556 306.152 464 306 464 306" stroke="#896068" stroke-width="1.8" stroke-linecap="round" stroke-linejoin="round"/>
<path d="M470 291.03C467.984 290.893 465.967 291.219 464 292" stroke="#896068" stroke-width="1.8" stroke-linecap="round" stroke-linejoin="round"/>
<path d="M459 284C457.994 284 456.99 284 456 284" stroke="#896068" stroke-width="1.8" stroke-linecap="round" stroke-linejoin="round"/>
<path d="M445.095 215.671C444.968 213.817 444.968 211.955 445.095 210.101C445.257 208.81 445.299 207.503 445.221 206.203V203C445.221 203 445.979 204.81 447.495 207.734C449.011 210.658 446.737 223.468 445.6 225L445.095 215.671Z" fill="#22272E"/>
<path d="M459.954 155.909C459.438 164.07 459.438 172.255 459.954 180.415C460.306 186.541 458.618 192.611 455.155 197.675C451.692 202.739 446.648 206.511 440.814 208.403C431.846 211.215 414.98 204.251 410.965 184.299C406.949 164.346 398.249 141.849 421.539 133.68C444.829 125.512 460.222 136.894 459.954 155.909Z" fill="#B28D93"/>
<path d="M409.582 169.701C409.582 169.701 412.372 167.946 413.302 162.006C413.357 161.344 413.566 160.705 413.912 160.141C414.259 159.577 414.733 159.106 415.295 158.767C416.625 158.178 417.793 157.268 418.697 156.114C419.6 154.961 420.211 153.601 420.477 152.152C420.743 149.587 421.806 147.697 424.463 149.182C445.323 161.466 459.141 150.262 459.141 150.262L459.274 157.957C467.379 155.662 472.295 144.862 470.701 136.897C468.708 126.908 464.988 128.798 460.337 121.238C455.687 113.678 447.183 108.414 436.288 112.329C425.393 116.243 421.407 117.998 412.904 117.863C404.4 117.728 396.296 121.373 395.631 129.473C394.967 137.572 387.659 140.002 386.331 147.562C385.002 155.122 387.925 158.902 390.715 161.871C393.505 164.841 388.191 173.211 395.233 180.231C402.275 187.25 406.925 189.41 409.848 194C410.247 194 411.309 181.581 409.582 169.701Z" fill="#22272E"/>
<path d="M413 172.136C413 172.136 407.767 162.905 400.743 167.088C393.72 171.271 401.157 185.695 412.036 184.974" fill="#B28D93"/>
<path d="M448.235 165C448.725 166.496 449.419 167.904 450.294 169.175C450.671 169.705 451.084 170.204 451.529 170.667C452.256 171.214 452.865 171.927 453.314 172.754C453.74 173.623 453.974 174.587 453.998 175.57C454.022 176.554 453.835 177.53 453.451 178.421C453.156 179.27 452.687 180.035 452.078 180.658C451.535 181.325 450.816 181.794 450.019 182C450.871 180.788 451.394 179.342 451.529 177.825C451.691 176.564 451.549 175.28 451.117 174.096C450.843 173.5 450.568 173.351 449.882 172.605C449.298 171.904 448.834 171.096 448.509 170.219C447.942 168.548 447.846 166.731 448.235 165Z" fill="#22272E"/>
<path d="M441 191.964C439.224 192.125 437.441 191.747 435.852 190.87C434.262 189.993 432.929 188.653 432 187" stroke="#22272E" stroke-width="1.8" stroke-linecap="round" stroke-linejoin="round"/>
<path d="M434 171C433.736 171.005 433.473 170.958 433.228 170.859C432.983 170.761 432.76 170.614 432.573 170.427C432.386 170.24 432.239 170.017 432.141 169.772C432.042 169.527 431.995 169.264 432 169V167C431.995 166.736 432.042 166.473 432.141 166.228C432.239 165.983 432.386 165.76 432.573 165.573C432.76 165.386 432.983 165.239 433.228 165.141C433.473 165.042 433.736 164.995 434 165C434.264 164.995 434.527 165.042 434.772 165.141C435.017 165.239 435.24 165.386 435.427 165.573C435.614 165.76 435.761 165.983 435.859 166.228C435.958 166.473 436.005 166.736 436 167V169C435.989 169.527 435.774 170.029 435.402 170.402C435.029 170.774 434.527 170.989 434 171Z" fill="#22272E"/>
<path d="M454 171C453.736 171.005 453.473 170.958 453.228 170.859C452.983 170.761 452.76 170.614 452.573 170.427C452.386 170.24 452.239 170.017 452.141 169.772C452.042 169.527 451.995 169.264 452 169V167C451.995 166.736 452.042 166.473 452.141 166.228C452.239 165.983 452.386 165.76 452.573 165.573C452.76 165.386 452.983 165.239 453.228 165.141C453.473 165.042 453.736 164.995 454 165C454.264 164.995 454.527 165.042 454.772 165.141C455.017 165.239 455.24 165.386 455.427 165.573C455.614 165.76 455.761 165.983 455.859 166.228C455.958 166.473 456.005 166.736 456 167V169C455.989 169.527 455.774 170.029 455.402 170.402C455.029 170.774 454.527 170.989 454 171Z" fill="#22272E"/>
<path d="M436.176 161.224C434.873 161.768 433.961 160.136 432.006 160.68C429.008 161.632 427.574 162.72 427.053 161.36C426.662 160.408 428.486 157.959 431.354 157.143C435.525 156.191 438.523 160.272 436.176 161.224Z" fill="#22272E"/>
<path d="M451.801 161.705C452.946 162.171 453.805 160.463 455.379 160.929C457.526 161.705 458.67 162.637 458.957 161.395C459.243 160.463 458.098 157.98 455.951 157.203C452.517 155.962 449.511 160.774 451.801 161.705Z" fill="#22272E"/>
<path d="M401 172.951C401.081 172.659 401.224 172.386 401.421 172.15C401.618 171.915 401.864 171.721 402.143 171.581C402.44 171.35 402.784 171.183 403.154 171.088C403.523 170.994 403.908 170.975 404.286 171.033C405.089 171.19 405.803 171.63 406.286 172.266C406.672 172.783 407.006 173.333 407.286 173.91C407.668 174.887 407.955 175.896 408.143 176.924C408.286 177.335 408.286 177.609 408.571 177.883C408.983 178.219 409.473 178.454 410 178.568C409.451 178.912 408.793 179.057 408.143 178.98C407.395 178.783 406.74 178.348 406.286 177.746C405.691 176.846 405.211 175.88 404.857 174.869C404.693 174.447 404.503 174.035 404.286 173.636C404.179 173.354 403.978 173.113 403.714 172.951C403.286 172.403 402.143 172.54 401 172.951Z" fill="#22272E"/>
<path d="M413.945 257.262C414.472 262.235 411.177 267.601 406.433 267.994C404.124 268.079 401.869 267.289 400.126 265.784C398.383 264.278 397.282 262.17 397.047 259.887C396.812 257.605 397.461 255.319 398.862 253.495C400.262 251.67 402.31 250.443 404.588 250.063C409.464 249.54 413.549 252.288 413.945 257.262Z" fill="#FFE779"/>
<path d="M426.689 230C426.689 230 412.314 223.747 406 209.91L408.553 199C411.51 204.597 416.097 209.186 421.718 212.172C423.238 212.945 424.524 214.103 425.445 215.529C426.365 216.955 426.887 218.597 426.958 220.288C427.062 223.527 426.973 226.771 426.689 230Z" fill="#22272E"/>
<path d="M254 309.5C254.004 310.486 253.812 311.463 253.436 312.374C253.061 313.286 252.508 314.114 251.811 314.811C251.114 315.508 250.286 316.061 249.374 316.436C248.463 316.812 247.486 317.004 246.5 317C244.516 316.982 242.619 316.186 241.216 314.784C239.814 313.381 239.018 311.484 239 309.5C239 307.511 239.79 305.603 241.197 304.197C242.603 302.79 244.511 302 246.5 302C248.489 302 250.397 302.79 251.803 304.197C253.21 305.603 254 307.511 254 309.5Z" fill="#22272E"/>
<path d="M254.15 335H239.85C239.081 335.003 238.319 334.853 237.607 334.558C236.896 334.263 236.25 333.829 235.706 333.281C235.162 332.732 234.731 332.081 234.438 331.364C234.146 330.647 233.997 329.879 234 329.103C234 325.628 235.37 322.295 237.808 319.838C240.246 317.381 243.552 316 247 316C250.448 316 253.754 317.381 256.192 319.838C258.63 322.295 260 325.628 260 329.103C260.003 329.879 259.854 330.647 259.562 331.364C259.269 332.081 258.838 332.732 258.294 333.281C257.75 333.829 257.104 334.263 256.393 334.558C255.681 334.853 254.919 335.003 254.15 335Z" fill="#22272E"/>
<path d="M210 318C209.991 325.989 212.412 333.778 216.92 340.256C221.427 346.734 227.791 351.572 235.105 354.081C242.418 356.589 250.308 356.64 257.651 354.226C264.994 351.812 271.415 347.056 276 340.637" stroke="#6DAFA7" stroke-width="1.8" stroke-linecap="round" stroke-linejoin="round"/>
<path d="M280.722 346L281 333L270 339.211L280.722 346Z" fill="#6DAFA7"/>
<path d="M283 318C282.993 310.095 280.479 302.399 275.824 296.039C271.17 289.679 264.62 284.988 257.133 282.653C249.645 280.317 241.613 280.46 234.212 283.061C226.811 285.661 220.429 290.582 216 297.104" stroke="#6DAFA7" stroke-width="1.8" stroke-linecap="round" stroke-linejoin="round"/>
<path d="M212 292L212.253 305L222 298.281L212 292Z" fill="#6DAFA7"/>
</svg>
